<?xml version="1.0" encoding="utf-8"?>
<svg xmlns="http://www.w3.org/2000/svg" xmlns:xlink="http://www.w3.org/1999/xlink" width="600" height="400" viewBox="0 0 2400 1600">
<defs>
  <clipPath id="clip620">
    <rect x="0" y="0" width="2400" height="1600"/>
  </clipPath>
</defs>
<path clip-path="url(#clip620)" d="M0 1600 L2400 1600 L2400 0 L0 0  Z" fill="#ffffff" fill-rule="evenodd" fill-opacity="1"/>
<defs>
  <clipPath id="clip621">
    <rect x="480" y="0" width="1681" height="1600"/>
  </clipPath>
</defs>
<path clip-path="url(#clip620)" d="M258.387 1423.18 L2352.76 1423.18 L2352.76 123.472 L258.387 123.472  Z" fill="#ffffff" fill-rule="evenodd" fill-opacity="1"/>
<defs>
  <clipPath id="clip622">
    <rect x="258" y="123" width="2095" height="1301"/>
  </clipPath>
</defs>
<polyline clip-path="url(#clip622)" style="stroke:#000000; stroke-linecap:round; stroke-linejoin:round; stroke-width:2; stroke-opacity:0.1; fill:none" points="314.364,1423.18 314.364,123.472 "/>
<polyline clip-path="url(#clip622)" style="stroke:#000000; stroke-linecap:round; stroke-linejoin:round; stroke-width:2; stroke-opacity:0.1; fill:none" points="644.216,1423.18 644.216,123.472 "/>
<polyline clip-path="url(#clip622)" style="stroke:#000000; stroke-linecap:round; stroke-linejoin:round; stroke-width:2; stroke-opacity:0.1; fill:none" points="974.069,1423.18 974.069,123.472 "/>
<polyline clip-path="url(#clip622)" style="stroke:#000000; stroke-linecap:round; stroke-linejoin:round; stroke-width:2; stroke-opacity:0.1; fill:none" points="1303.92,1423.18 1303.92,123.472 "/>
<polyline clip-path="url(#clip622)" style="stroke:#000000; stroke-linecap:round; stroke-linejoin:round; stroke-width:2; stroke-opacity:0.1; fill:none" points="1633.78,1423.18 1633.78,123.472 "/>
<polyline clip-path="url(#clip622)" style="stroke:#000000; stroke-linecap:round; stroke-linejoin:round; stroke-width:2; stroke-opacity:0.1; fill:none" points="1963.63,1423.18 1963.63,123.472 "/>
<polyline clip-path="url(#clip622)" style="stroke:#000000; stroke-linecap:round; stroke-linejoin:round; stroke-width:2; stroke-opacity:0.1; fill:none" points="2293.48,1423.18 2293.48,123.472 "/>
<polyline clip-path="url(#clip620)" style="stroke:#000000; stroke-linecap:round; stroke-linejoin:round; stroke-width:4; stroke-opacity:1; fill:none" points="258.387,1423.18 2352.76,1423.18 "/>
<polyline clip-path="url(#clip620)" style="stroke:#000000; stroke-linecap:round; stroke-linejoin:round; stroke-width:4; stroke-opacity:1; fill:none" points="314.364,1423.18 314.364,1404.28 "/>
<polyline clip-path="url(#clip620)" style="stroke:#000000; stroke-linecap:round; stroke-linejoin:round; stroke-width:4; stroke-opacity:1; fill:none" points="644.216,1423.18 644.216,1404.28 "/>
<polyline clip-path="url(#clip620)" style="stroke:#000000; stroke-linecap:round; stroke-linejoin:round; stroke-width:4; stroke-opacity:1; fill:none" points="974.069,1423.18 974.069,1404.28 "/>
<polyline clip-path="url(#clip620)" style="stroke:#000000; stroke-linecap:round; stroke-linejoin:round; stroke-width:4; stroke-opacity:1; fill:none" points="1303.92,1423.18 1303.92,1404.28 "/>
<polyline clip-path="url(#clip620)" style="stroke:#000000; stroke-linecap:round; stroke-linejoin:round; stroke-width:4; stroke-opacity:1; fill:none" points="1633.78,1423.18 1633.78,1404.28 "/>
<polyline clip-path="url(#clip620)" style="stroke:#000000; stroke-linecap:round; stroke-linejoin:round; stroke-width:4; stroke-opacity:1; fill:none" points="1963.63,1423.18 1963.63,1404.28 "/>
<polyline clip-path="url(#clip620)" style="stroke:#000000; stroke-linecap:round; stroke-linejoin:round; stroke-width:4; stroke-opacity:1; fill:none" points="2293.48,1423.18 2293.48,1404.28 "/>
<path clip-path="url(#clip620)" d="M314.364 1454.1 Q310.752 1454.1 308.924 1457.66 Q307.118 1461.2 307.118 1468.33 Q307.118 1475.44 308.924 1479.01 Q310.752 1482.55 314.364 1482.55 Q317.998 1482.55 319.803 1479.01 Q321.632 1475.44 321.632 1468.33 Q321.632 1461.2 319.803 1457.66 Q317.998 1454.1 314.364 1454.1 M314.364 1450.39 Q320.174 1450.39 323.229 1455 Q326.308 1459.58 326.308 1468.33 Q326.308 1477.06 323.229 1481.67 Q320.174 1486.25 314.364 1486.25 Q308.553 1486.25 305.475 1481.67 Q302.419 1477.06 302.419 1468.33 Q302.419 1459.58 305.475 1455 Q308.553 1450.39 314.364 1450.39 Z" fill="#000000" fill-rule="nonzero" fill-opacity="1" /><path clip-path="url(#clip620)" d="M603.823 1481.64 L611.462 1481.64 L611.462 1455.28 L603.152 1456.95 L603.152 1452.69 L611.416 1451.02 L616.092 1451.02 L616.092 1481.64 L623.73 1481.64 L623.73 1485.58 L603.823 1485.58 L603.823 1481.64 Z" fill="#000000" fill-rule="nonzero" fill-opacity="1" /><path clip-path="url(#clip620)" d="M643.175 1454.1 Q639.564 1454.1 637.735 1457.66 Q635.929 1461.2 635.929 1468.33 Q635.929 1475.44 637.735 1479.01 Q639.564 1482.55 643.175 1482.55 Q646.809 1482.55 648.615 1479.01 Q650.443 1475.44 650.443 1468.33 Q650.443 1461.2 648.615 1457.66 Q646.809 1454.1 643.175 1454.1 M643.175 1450.39 Q648.985 1450.39 652.041 1455 Q655.119 1459.58 655.119 1468.33 Q655.119 1477.06 652.041 1481.67 Q648.985 1486.25 643.175 1486.25 Q637.365 1486.25 634.286 1481.67 Q631.23 1477.06 631.23 1468.33 Q631.23 1459.58 634.286 1455 Q637.365 1450.39 643.175 1450.39 Z" fill="#000000" fill-rule="nonzero" fill-opacity="1" /><path clip-path="url(#clip620)" d="M673.337 1454.1 Q669.726 1454.1 667.897 1457.66 Q666.091 1461.2 666.091 1468.33 Q666.091 1475.44 667.897 1479.01 Q669.726 1482.55 673.337 1482.55 Q676.971 1482.55 678.776 1479.01 Q680.605 1475.44 680.605 1468.33 Q680.605 1461.2 678.776 1457.66 Q676.971 1454.1 673.337 1454.1 M673.337 1450.39 Q679.147 1450.39 682.202 1455 Q685.281 1459.58 685.281 1468.33 Q685.281 1477.06 682.202 1481.67 Q679.147 1486.25 673.337 1486.25 Q667.527 1486.25 664.448 1481.67 Q661.392 1477.06 661.392 1468.33 Q661.392 1459.58 664.448 1455 Q667.527 1450.39 673.337 1450.39 Z" fill="#000000" fill-rule="nonzero" fill-opacity="1" /><path clip-path="url(#clip620)" d="M937.762 1481.64 L954.081 1481.64 L954.081 1485.58 L932.137 1485.58 L932.137 1481.64 Q934.799 1478.89 939.382 1474.26 Q943.989 1469.61 945.169 1468.27 Q947.415 1465.74 948.294 1464.01 Q949.197 1462.25 949.197 1460.56 Q949.197 1457.8 947.252 1456.07 Q945.331 1454.33 942.229 1454.33 Q940.03 1454.33 937.577 1455.09 Q935.146 1455.86 932.368 1457.41 L932.368 1452.69 Q935.192 1451.55 937.646 1450.97 Q940.1 1450.39 942.137 1450.39 Q947.507 1450.39 950.702 1453.08 Q953.896 1455.77 953.896 1460.26 Q953.896 1462.39 953.086 1464.31 Q952.299 1466.2 950.192 1468.8 Q949.614 1469.47 946.512 1472.69 Q943.41 1475.88 937.762 1481.64 Z" fill="#000000" fill-rule="nonzero" fill-opacity="1" /><path clip-path="url(#clip620)" d="M973.896 1454.1 Q970.285 1454.1 968.456 1457.66 Q966.651 1461.2 966.651 1468.33 Q966.651 1475.44 968.456 1479.01 Q970.285 1482.55 973.896 1482.55 Q977.53 1482.55 979.336 1479.01 Q981.164 1475.44 981.164 1468.33 Q981.164 1461.2 979.336 1457.66 Q977.53 1454.1 973.896 1454.1 M973.896 1450.39 Q979.706 1450.39 982.762 1455 Q985.84 1459.58 985.84 1468.33 Q985.84 1477.06 982.762 1481.67 Q979.706 1486.25 973.896 1486.25 Q968.086 1486.25 965.007 1481.67 Q961.951 1477.06 961.951 1468.33 Q961.951 1459.58 965.007 1455 Q968.086 1450.39 973.896 1450.39 Z" fill="#000000" fill-rule="nonzero" fill-opacity="1" /><path clip-path="url(#clip620)" d="M1004.06 1454.1 Q1000.45 1454.1 998.618 1457.66 Q996.812 1461.2 996.812 1468.33 Q996.812 1475.44 998.618 1479.01 Q1000.45 1482.55 1004.06 1482.55 Q1007.69 1482.55 1009.5 1479.01 Q1011.33 1475.44 1011.33 1468.33 Q1011.33 1461.2 1009.5 1457.66 Q1007.69 1454.1 1004.06 1454.1 M1004.06 1450.39 Q1009.87 1450.39 1012.92 1455 Q1016 1459.58 1016 1468.33 Q1016 1477.06 1012.92 1481.67 Q1009.87 1486.25 1004.06 1486.25 Q998.248 1486.25 995.169 1481.67 Q992.113 1477.06 992.113 1468.33 Q992.113 1459.58 995.169 1455 Q998.248 1450.39 1004.06 1450.39 Z" fill="#000000" fill-rule="nonzero" fill-opacity="1" /><path clip-path="url(#clip620)" d="M1277.68 1466.95 Q1281.04 1467.66 1282.92 1469.93 Q1284.81 1472.2 1284.81 1475.53 Q1284.81 1480.65 1281.3 1483.45 Q1277.78 1486.25 1271.3 1486.25 Q1269.12 1486.25 1266.8 1485.81 Q1264.51 1485.39 1262.06 1484.54 L1262.06 1480.02 Q1264 1481.16 1266.32 1481.74 Q1268.63 1482.32 1271.16 1482.32 Q1275.55 1482.32 1277.85 1480.58 Q1280.16 1478.84 1280.16 1475.53 Q1280.16 1472.48 1278.01 1470.77 Q1275.88 1469.03 1272.06 1469.03 L1268.03 1469.03 L1268.03 1465.19 L1272.24 1465.19 Q1275.69 1465.19 1277.52 1463.82 Q1279.35 1462.43 1279.35 1459.84 Q1279.35 1457.18 1277.45 1455.77 Q1275.58 1454.33 1272.06 1454.33 Q1270.14 1454.33 1267.94 1454.75 Q1265.74 1455.16 1263.1 1456.04 L1263.1 1451.88 Q1265.76 1451.14 1268.08 1450.77 Q1270.42 1450.39 1272.48 1450.39 Q1277.8 1450.39 1280.9 1452.83 Q1284 1455.23 1284 1459.35 Q1284 1462.22 1282.36 1464.21 Q1280.72 1466.18 1277.68 1466.95 Z" fill="#000000" fill-rule="nonzero" fill-opacity="1" /><path clip-path="url(#clip620)" d="M1303.68 1454.1 Q1300.07 1454.1 1298.24 1457.66 Q1296.43 1461.2 1296.43 1468.33 Q1296.43 1475.44 1298.24 1479.01 Q1300.07 1482.55 1303.68 1482.55 Q1307.31 1482.55 1309.12 1479.01 Q1310.95 1475.44 1310.95 1468.33 Q1310.95 1461.2 1309.12 1457.66 Q1307.31 1454.1 1303.68 1454.1 M1303.68 1450.39 Q1309.49 1450.39 1312.55 1455 Q1315.62 1459.58 1315.62 1468.33 Q1315.62 1477.06 1312.55 1481.67 Q1309.49 1486.25 1303.68 1486.25 Q1297.87 1486.25 1294.79 1481.67 Q1291.73 1477.06 1291.73 1468.33 Q1291.73 1459.58 1294.79 1455 Q1297.87 1450.39 1303.68 1450.39 Z" fill="#000000" fill-rule="nonzero" fill-opacity="1" /><path clip-path="url(#clip620)" d="M1333.84 1454.1 Q1330.23 1454.1 1328.4 1457.66 Q1326.6 1461.2 1326.6 1468.33 Q1326.6 1475.44 1328.4 1479.01 Q1330.23 1482.55 1333.84 1482.55 Q1337.48 1482.55 1339.28 1479.01 Q1341.11 1475.44 1341.11 1468.33 Q1341.11 1461.2 1339.28 1457.66 Q1337.48 1454.1 1333.84 1454.1 M1333.84 1450.39 Q1339.65 1450.39 1342.71 1455 Q1345.79 1459.58 1345.79 1468.33 Q1345.79 1477.06 1342.71 1481.67 Q1339.65 1486.25 1333.84 1486.25 Q1328.03 1486.25 1324.95 1481.67 Q1321.9 1477.06 1321.9 1468.33 Q1321.9 1459.58 1324.95 1455 Q1328.03 1450.39 1333.84 1450.39 Z" fill="#000000" fill-rule="nonzero" fill-opacity="1" /><path clip-path="url(#clip620)" d="M1606.87 1455.09 L1595.06 1473.54 L1606.87 1473.54 L1606.87 1455.09 M1605.64 1451.02 L1611.52 1451.02 L1611.52 1473.54 L1616.45 1473.54 L1616.45 1477.43 L1611.52 1477.43 L1611.52 1485.58 L1606.87 1485.58 L1606.87 1477.43 L1591.26 1477.43 L1591.26 1472.92 L1605.64 1451.02 Z" fill="#000000" fill-rule="nonzero" fill-opacity="1" /><path clip-path="url(#clip620)" d="M1634.18 1454.1 Q1630.57 1454.1 1628.74 1457.66 Q1626.94 1461.2 1626.94 1468.33 Q1626.94 1475.44 1628.74 1479.01 Q1630.57 1482.55 1634.18 1482.55 Q1637.81 1482.55 1639.62 1479.01 Q1641.45 1475.44 1641.45 1468.33 Q1641.45 1461.2 1639.62 1457.66 Q1637.81 1454.1 1634.18 1454.1 M1634.18 1450.39 Q1639.99 1450.39 1643.05 1455 Q1646.12 1459.58 1646.12 1468.33 Q1646.12 1477.06 1643.05 1481.67 Q1639.99 1486.25 1634.18 1486.25 Q1628.37 1486.25 1625.29 1481.67 Q1622.24 1477.06 1622.24 1468.33 Q1622.24 1459.58 1625.29 1455 Q1628.37 1450.39 1634.18 1450.39 Z" fill="#000000" fill-rule="nonzero" fill-opacity="1" /><path clip-path="url(#clip620)" d="M1664.34 1454.1 Q1660.73 1454.1 1658.9 1457.66 Q1657.1 1461.2 1657.1 1468.33 Q1657.1 1475.44 1658.9 1479.01 Q1660.73 1482.55 1664.34 1482.55 Q1667.98 1482.55 1669.78 1479.01 Q1671.61 1475.44 1671.61 1468.33 Q1671.61 1461.2 1669.78 1457.66 Q1667.98 1454.1 1664.34 1454.1 M1664.34 1450.39 Q1670.15 1450.39 1673.21 1455 Q1676.29 1459.58 1676.29 1468.33 Q1676.29 1477.06 1673.21 1481.67 Q1670.15 1486.25 1664.34 1486.25 Q1658.53 1486.25 1655.45 1481.67 Q1652.4 1477.06 1652.4 1468.33 Q1652.4 1459.58 1655.45 1455 Q1658.53 1450.39 1664.34 1450.39 Z" fill="#000000" fill-rule="nonzero" fill-opacity="1" /><path clip-path="url(#clip620)" d="M1923.25 1451.02 L1941.6 1451.02 L1941.6 1454.96 L1927.53 1454.96 L1927.53 1463.43 Q1928.55 1463.08 1929.57 1462.92 Q1930.58 1462.73 1931.6 1462.73 Q1937.39 1462.73 1940.77 1465.9 Q1944.15 1469.08 1944.15 1474.49 Q1944.15 1480.07 1940.68 1483.17 Q1937.2 1486.25 1930.89 1486.25 Q1928.71 1486.25 1926.44 1485.88 Q1924.2 1485.51 1921.79 1484.77 L1921.79 1480.07 Q1923.87 1481.2 1926.09 1481.76 Q1928.32 1482.32 1930.79 1482.32 Q1934.8 1482.32 1937.14 1480.21 Q1939.47 1478.1 1939.47 1474.49 Q1939.47 1470.88 1937.14 1468.77 Q1934.8 1466.67 1930.79 1466.67 Q1928.92 1466.67 1927.04 1467.08 Q1925.19 1467.5 1923.25 1468.38 L1923.25 1451.02 Z" fill="#000000" fill-rule="nonzero" fill-opacity="1" /><path clip-path="url(#clip620)" d="M1963.36 1454.1 Q1959.75 1454.1 1957.92 1457.66 Q1956.12 1461.2 1956.12 1468.33 Q1956.12 1475.44 1957.92 1479.01 Q1959.75 1482.55 1963.36 1482.55 Q1967 1482.55 1968.8 1479.01 Q1970.63 1475.44 1970.63 1468.33 Q1970.63 1461.2 1968.8 1457.66 Q1967 1454.1 1963.36 1454.1 M1963.36 1450.39 Q1969.17 1450.39 1972.23 1455 Q1975.31 1459.58 1975.31 1468.33 Q1975.31 1477.06 1972.23 1481.67 Q1969.17 1486.25 1963.36 1486.25 Q1957.55 1486.25 1954.47 1481.67 Q1951.42 1477.06 1951.42 1468.33 Q1951.42 1459.58 1954.47 1455 Q1957.55 1450.39 1963.36 1450.39 Z" fill="#000000" fill-rule="nonzero" fill-opacity="1" /><path clip-path="url(#clip620)" d="M1993.52 1454.1 Q1989.91 1454.1 1988.08 1457.66 Q1986.28 1461.2 1986.28 1468.33 Q1986.28 1475.44 1988.08 1479.01 Q1989.91 1482.55 1993.52 1482.55 Q1997.16 1482.55 1998.96 1479.01 Q2000.79 1475.44 2000.79 1468.33 Q2000.79 1461.2 1998.96 1457.66 Q1997.16 1454.1 1993.52 1454.1 M1993.52 1450.39 Q1999.33 1450.39 2002.39 1455 Q2005.47 1459.58 2005.47 1468.33 Q2005.47 1477.06 2002.39 1481.67 Q1999.33 1486.25 1993.52 1486.25 Q1987.71 1486.25 1984.64 1481.67 Q1981.58 1477.06 1981.58 1468.33 Q1981.58 1459.58 1984.64 1455 Q1987.71 1450.39 1993.52 1450.39 Z" fill="#000000" fill-rule="nonzero" fill-opacity="1" /><path clip-path="url(#clip620)" d="M2263.81 1466.44 Q2260.66 1466.44 2258.81 1468.59 Q2256.98 1470.74 2256.98 1474.49 Q2256.98 1478.22 2258.81 1480.39 Q2260.66 1482.55 2263.81 1482.55 Q2266.95 1482.55 2268.78 1480.39 Q2270.63 1478.22 2270.63 1474.49 Q2270.63 1470.74 2268.78 1468.59 Q2266.95 1466.44 2263.81 1466.44 M2273.09 1451.78 L2273.09 1456.04 Q2271.33 1455.21 2269.52 1454.77 Q2267.74 1454.33 2265.98 1454.33 Q2261.35 1454.33 2258.9 1457.45 Q2256.47 1460.58 2256.12 1466.9 Q2257.49 1464.89 2259.55 1463.82 Q2261.61 1462.73 2264.08 1462.73 Q2269.29 1462.73 2272.3 1465.9 Q2275.33 1469.05 2275.33 1474.49 Q2275.33 1479.82 2272.19 1483.03 Q2269.04 1486.25 2263.81 1486.25 Q2257.81 1486.25 2254.64 1481.67 Q2251.47 1477.06 2251.47 1468.33 Q2251.47 1460.14 2255.36 1455.28 Q2259.25 1450.39 2265.8 1450.39 Q2267.56 1450.39 2269.34 1450.74 Q2271.14 1451.09 2273.09 1451.78 Z" fill="#000000" fill-rule="nonzero" fill-opacity="1" /><path clip-path="url(#clip620)" d="M2293.39 1454.1 Q2289.78 1454.1 2287.95 1457.66 Q2286.14 1461.2 2286.14 1468.33 Q2286.14 1475.44 2287.95 1479.01 Q2289.78 1482.55 2293.39 1482.55 Q2297.02 1482.55 2298.83 1479.01 Q2300.66 1475.44 2300.66 1468.33 Q2300.66 1461.2 2298.83 1457.66 Q2297.02 1454.1 2293.39 1454.1 M2293.39 1450.39 Q2299.2 1450.39 2302.25 1455 Q2305.33 1459.58 2305.33 1468.33 Q2305.33 1477.06 2302.25 1481.67 Q2299.2 1486.25 2293.39 1486.25 Q2287.58 1486.25 2284.5 1481.67 Q2281.44 1477.06 2281.44 1468.33 Q2281.44 1459.58 2284.5 1455 Q2287.58 1450.39 2293.39 1450.39 Z" fill="#000000" fill-rule="nonzero" fill-opacity="1" /><path clip-path="url(#clip620)" d="M2323.55 1454.1 Q2319.94 1454.1 2318.11 1457.66 Q2316.31 1461.2 2316.31 1468.33 Q2316.31 1475.44 2318.11 1479.01 Q2319.94 1482.55 2323.55 1482.55 Q2327.18 1482.55 2328.99 1479.01 Q2330.82 1475.44 2330.82 1468.33 Q2330.82 1461.2 2328.99 1457.66 Q2327.18 1454.1 2323.55 1454.1 M2323.55 1450.39 Q2329.36 1450.39 2332.42 1455 Q2335.49 1459.58 2335.49 1468.33 Q2335.49 1477.06 2332.42 1481.67 Q2329.36 1486.25 2323.55 1486.25 Q2317.74 1486.25 2314.66 1481.67 Q2311.61 1477.06 2311.61 1468.33 Q2311.61 1459.58 2314.66 1455 Q2317.74 1450.39 2323.55 1450.39 Z" fill="#000000" fill-rule="nonzero" fill-opacity="1" /><path clip-path="url(#clip620)" d="M1040.54 1520.52 L1067.84 1520.52 L1067.84 1525.93 L1046.96 1525.93 L1046.96 1539.94 L1065.81 1539.94 L1065.81 1545.35 L1046.96 1545.35 L1046.96 1568.04 L1040.54 1568.04 L1040.54 1520.52 Z" fill="#000000" fill-rule="nonzero" fill-opacity="1" /><path clip-path="url(#clip620)" d="M1093.69 1537.87 Q1092.7 1537.3 1091.52 1537.04 Q1090.38 1536.76 1088.98 1536.76 Q1084.01 1536.76 1081.34 1540 Q1078.7 1543.22 1078.7 1549.27 L1078.7 1568.04 L1072.81 1568.04 L1072.81 1532.4 L1078.7 1532.4 L1078.7 1537.93 Q1080.54 1534.69 1083.5 1533.13 Q1086.46 1531.54 1090.7 1531.54 Q1091.3 1531.54 1092.03 1531.63 Q1092.77 1531.7 1093.66 1531.85 L1093.69 1537.87 Z" fill="#000000" fill-rule="nonzero" fill-opacity="1" /><path clip-path="url(#clip620)" d="M1128.89 1548.76 L1128.89 1551.62 L1101.96 1551.62 Q1102.35 1557.67 1105.59 1560.85 Q1108.87 1564 1114.7 1564 Q1118.07 1564 1121.22 1563.17 Q1124.4 1562.35 1127.52 1560.69 L1127.52 1566.23 Q1124.37 1567.57 1121.06 1568.27 Q1117.75 1568.97 1114.35 1568.97 Q1105.82 1568.97 1100.82 1564 Q1095.85 1559.04 1095.85 1550.57 Q1095.85 1541.82 1100.56 1536.69 Q1105.31 1531.54 1113.33 1531.54 Q1120.52 1531.54 1124.69 1536.18 Q1128.89 1540.8 1128.89 1548.76 M1123.04 1547.04 Q1122.97 1542.23 1120.33 1539.37 Q1117.72 1536.5 1113.39 1536.5 Q1108.49 1536.5 1105.53 1539.27 Q1102.6 1542.04 1102.16 1547.07 L1123.04 1547.04 Z" fill="#000000" fill-rule="nonzero" fill-opacity="1" /><path clip-path="url(#clip620)" d="M1142 1550.25 Q1142 1556.71 1144.65 1560.4 Q1147.32 1564.07 1151.97 1564.07 Q1156.61 1564.07 1159.29 1560.4 Q1161.96 1556.71 1161.96 1550.25 Q1161.96 1543.79 1159.29 1540.13 Q1156.61 1536.44 1151.97 1536.44 Q1147.32 1536.44 1144.65 1540.13 Q1142 1543.79 1142 1550.25 M1161.96 1562.7 Q1160.12 1565.88 1157.28 1567.44 Q1154.48 1568.97 1150.53 1568.97 Q1144.07 1568.97 1140 1563.81 Q1135.96 1558.65 1135.96 1550.25 Q1135.96 1541.85 1140 1536.69 Q1144.07 1531.54 1150.53 1531.54 Q1154.48 1531.54 1157.28 1533.1 Q1160.12 1534.62 1161.96 1537.81 L1161.96 1532.4 L1167.82 1532.4 L1167.82 1581.6 L1161.96 1581.6 L1161.96 1562.7 Z" fill="#000000" fill-rule="nonzero" fill-opacity="1" /><path clip-path="url(#clip620)" d="M1179.28 1553.98 L1179.28 1532.4 L1185.13 1532.4 L1185.13 1553.75 Q1185.13 1558.81 1187.11 1561.36 Q1189.08 1563.87 1193.03 1563.87 Q1197.77 1563.87 1200.51 1560.85 Q1203.27 1557.83 1203.27 1552.61 L1203.27 1532.4 L1209.13 1532.4 L1209.13 1568.04 L1203.27 1568.04 L1203.27 1562.57 Q1201.14 1565.82 1198.31 1567.41 Q1195.51 1568.97 1191.78 1568.97 Q1185.64 1568.97 1182.46 1565.15 Q1179.28 1561.33 1179.28 1553.98 M1194.01 1531.54 L1194.01 1531.54 Z" fill="#000000" fill-rule="nonzero" fill-opacity="1" /><path clip-path="url(#clip620)" d="M1251.69 1548.76 L1251.69 1551.62 L1224.76 1551.62 Q1225.14 1557.67 1228.39 1560.85 Q1231.67 1564 1237.49 1564 Q1240.86 1564 1244.02 1563.17 Q1247.2 1562.35 1250.32 1560.69 L1250.32 1566.23 Q1247.17 1567.57 1243.86 1568.27 Q1240.55 1568.97 1237.14 1568.97 Q1228.61 1568.97 1223.61 1564 Q1218.65 1559.04 1218.65 1550.57 Q1218.65 1541.82 1223.36 1536.69 Q1228.1 1531.54 1236.12 1531.54 Q1243.32 1531.54 1247.48 1536.18 Q1251.69 1540.8 1251.69 1548.76 M1245.83 1547.04 Q1245.77 1542.23 1243.12 1539.37 Q1240.51 1536.5 1236.19 1536.5 Q1231.28 1536.5 1228.32 1539.27 Q1225.4 1542.04 1224.95 1547.07 L1245.83 1547.04 Z" fill="#000000" fill-rule="nonzero" fill-opacity="1" /><path clip-path="url(#clip620)" d="M1290.93 1546.53 L1290.93 1568.04 L1285.07 1568.04 L1285.07 1546.72 Q1285.07 1541.66 1283.1 1539.14 Q1281.13 1536.63 1277.18 1536.63 Q1272.44 1536.63 1269.7 1539.65 Q1266.96 1542.68 1266.96 1547.9 L1266.96 1568.04 L1261.08 1568.04 L1261.08 1532.4 L1266.96 1532.4 L1266.96 1537.93 Q1269.06 1534.72 1271.9 1533.13 Q1274.76 1531.54 1278.49 1531.54 Q1284.63 1531.54 1287.78 1535.36 Q1290.93 1539.14 1290.93 1546.53 Z" fill="#000000" fill-rule="nonzero" fill-opacity="1" /><path clip-path="url(#clip620)" d="M1328.27 1533.76 L1328.27 1539.24 Q1325.78 1537.87 1323.27 1537.2 Q1320.79 1536.5 1318.24 1536.5 Q1312.54 1536.5 1309.39 1540.13 Q1306.24 1543.73 1306.24 1550.25 Q1306.24 1556.78 1309.39 1560.4 Q1312.54 1564 1318.24 1564 Q1320.79 1564 1323.27 1563.33 Q1325.78 1562.63 1328.27 1561.26 L1328.27 1566.68 Q1325.81 1567.82 1323.17 1568.39 Q1320.56 1568.97 1317.6 1568.97 Q1309.55 1568.97 1304.81 1563.91 Q1300.07 1558.85 1300.07 1550.25 Q1300.07 1541.53 1304.84 1536.53 Q1309.65 1531.54 1317.98 1531.54 Q1320.69 1531.54 1323.27 1532.11 Q1325.85 1532.65 1328.27 1533.76 Z" fill="#000000" fill-rule="nonzero" fill-opacity="1" /><path clip-path="url(#clip620)" d="M1353.28 1571.35 Q1350.8 1577.72 1348.44 1579.66 Q1346.09 1581.6 1342.14 1581.6 L1337.46 1581.6 L1337.46 1576.7 L1340.9 1576.7 Q1343.32 1576.7 1344.66 1575.56 Q1345.99 1574.41 1347.62 1570.14 L1348.67 1567.47 L1334.25 1532.4 L1340.46 1532.4 L1351.6 1560.28 L1362.74 1532.4 L1368.94 1532.4 L1353.28 1571.35 Z" fill="#000000" fill-rule="nonzero" fill-opacity="1" /><path clip-path="url(#clip620)" d="M1397.21 1518.52 L1410.7 1518.52 L1410.7 1523.07 L1403.06 1523.07 L1403.06 1572.09 L1410.7 1572.09 L1410.7 1576.64 L1397.21 1576.64 L1397.21 1518.52 Z" fill="#000000" fill-rule="nonzero" fill-opacity="1" /><path clip-path="url(#clip620)" d="M1455.83 1561.26 L1455.83 1548.5 L1445.33 1548.5 L1445.33 1543.22 L1462.2 1543.22 L1462.2 1563.62 Q1458.48 1566.26 1453.99 1567.63 Q1449.5 1568.97 1444.41 1568.97 Q1433.27 1568.97 1426.97 1562.47 Q1420.7 1555.95 1420.7 1544.33 Q1420.7 1532.68 1426.97 1526.19 Q1433.27 1519.66 1444.41 1519.66 Q1449.05 1519.66 1453.22 1520.81 Q1457.43 1521.96 1460.96 1524.18 L1460.96 1531.03 Q1457.39 1528 1453.38 1526.48 Q1449.37 1524.95 1444.95 1524.95 Q1436.23 1524.95 1431.84 1529.82 Q1427.47 1534.69 1427.47 1544.33 Q1427.47 1553.94 1431.84 1558.81 Q1436.23 1563.68 1444.95 1563.68 Q1448.35 1563.68 1451.03 1563.11 Q1453.7 1562.51 1455.83 1561.26 Z" fill="#000000" fill-rule="nonzero" fill-opacity="1" /><path clip-path="url(#clip620)" d="M1473.94 1520.52 L1480.37 1520.52 L1480.37 1540 L1503.74 1540 L1503.74 1520.52 L1510.17 1520.52 L1510.17 1568.04 L1503.74 1568.04 L1503.74 1545.41 L1480.37 1545.41 L1480.37 1568.04 L1473.94 1568.04 L1473.94 1520.52 Z" fill="#000000" fill-rule="nonzero" fill-opacity="1" /><path clip-path="url(#clip620)" d="M1520.16 1532.4 L1547.98 1532.4 L1547.98 1537.74 L1525.95 1563.37 L1547.98 1563.37 L1547.98 1568.04 L1519.36 1568.04 L1519.36 1562.7 L1541.39 1537.07 L1520.16 1537.07 L1520.16 1532.4 Z" fill="#000000" fill-rule="nonzero" fill-opacity="1" /><path clip-path="url(#clip620)" d="M1570.61 1518.52 L1570.61 1576.64 L1557.11 1576.64 L1557.11 1572.09 L1564.72 1572.09 L1564.72 1523.07 L1557.11 1523.07 L1557.11 1518.52 L1570.61 1518.52 Z" fill="#000000" fill-rule="nonzero" fill-opacity="1" /><polyline clip-path="url(#clip622)" style="stroke:#000000; stroke-linecap:round; stroke-linejoin:round; stroke-width:2; stroke-opacity:0.1; fill:none" points="258.387,958.327 2352.76,958.327 "/>
<polyline clip-path="url(#clip622)" style="stroke:#000000; stroke-linecap:round; stroke-linejoin:round; stroke-width:2; stroke-opacity:0.1; fill:none" points="258.387,487.008 2352.76,487.008 "/>
<polyline clip-path="url(#clip620)" style="stroke:#000000; stroke-linecap:round; stroke-linejoin:round; stroke-width:4; stroke-opacity:1; fill:none" points="258.387,1423.18 258.387,123.472 "/>
<polyline clip-path="url(#clip620)" style="stroke:#000000; stroke-linecap:round; stroke-linejoin:round; stroke-width:4; stroke-opacity:1; fill:none" points="258.387,958.327 277.285,958.327 "/>
<polyline clip-path="url(#clip620)" style="stroke:#000000; stroke-linecap:round; stroke-linejoin:round; stroke-width:4; stroke-opacity:1; fill:none" points="258.387,487.008 277.285,487.008 "/>
<path clip-path="url(#clip620)" d="M114.931 978.12 L122.57 978.12 L122.57 951.754 L114.26 953.421 L114.26 949.162 L122.524 947.495 L127.2 947.495 L127.2 978.12 L134.839 978.12 L134.839 982.055 L114.931 982.055 L114.931 978.12 Z" fill="#000000" fill-rule="nonzero" fill-opacity="1" /><path clip-path="url(#clip620)" d="M154.283 950.574 Q150.672 950.574 148.843 954.138 Q147.038 957.68 147.038 964.81 Q147.038 971.916 148.843 975.481 Q150.672 979.023 154.283 979.023 Q157.917 979.023 159.723 975.481 Q161.552 971.916 161.552 964.81 Q161.552 957.68 159.723 954.138 Q157.917 950.574 154.283 950.574 M154.283 946.87 Q160.093 946.87 163.149 951.476 Q166.227 956.06 166.227 964.81 Q166.227 973.536 163.149 978.143 Q160.093 982.726 154.283 982.726 Q148.473 982.726 145.394 978.143 Q142.339 973.536 142.339 964.81 Q142.339 956.06 145.394 951.476 Q148.473 946.87 154.283 946.87 Z" fill="#000000" fill-rule="nonzero" fill-opacity="1" /><path clip-path="url(#clip620)" d="M175.932 929.066 Q172.998 929.066 171.512 931.962 Q170.045 934.84 170.045 940.633 Q170.045 946.407 171.512 949.303 Q172.998 952.181 175.932 952.181 Q178.885 952.181 180.352 949.303 Q181.838 946.407 181.838 940.633 Q181.838 934.84 180.352 931.962 Q178.885 929.066 175.932 929.066 M175.932 926.057 Q180.653 926.057 183.136 929.799 Q185.637 933.523 185.637 940.633 Q185.637 947.723 183.136 951.466 Q180.653 955.19 175.932 955.19 Q171.212 955.19 168.71 951.466 Q166.227 947.723 166.227 940.633 Q166.227 933.523 168.71 929.799 Q171.212 926.057 175.932 926.057 Z" fill="#000000" fill-rule="nonzero" fill-opacity="1" /><path clip-path="url(#clip620)" d="M192.314 949.867 L196.282 949.867 L196.282 954.645 L192.314 954.645 L192.314 949.867 Z" fill="#000000" fill-rule="nonzero" fill-opacity="1" /><path clip-path="url(#clip620)" d="M212.683 929.066 Q209.749 929.066 208.263 931.962 Q206.796 934.84 206.796 940.633 Q206.796 946.407 208.263 949.303 Q209.749 952.181 212.683 952.181 Q215.635 952.181 217.102 949.303 Q218.588 946.407 218.588 940.633 Q218.588 934.84 217.102 931.962 Q215.635 929.066 212.683 929.066 M212.683 926.057 Q217.403 926.057 219.886 929.799 Q222.387 933.523 222.387 940.633 Q222.387 947.723 219.886 951.466 Q217.403 955.19 212.683 955.19 Q207.962 955.19 205.46 951.466 Q202.978 947.723 202.978 940.633 Q202.978 933.523 205.46 929.799 Q207.962 926.057 212.683 926.057 Z" fill="#000000" fill-rule="nonzero" fill-opacity="1" /><path clip-path="url(#clip620)" d="M116.022 506.801 L123.661 506.801 L123.661 480.435 L115.351 482.102 L115.351 477.842 L123.615 476.176 L128.291 476.176 L128.291 506.801 L135.93 506.801 L135.93 510.736 L116.022 510.736 L116.022 506.801 Z" fill="#000000" fill-rule="nonzero" fill-opacity="1" /><path clip-path="url(#clip620)" d="M155.374 479.255 Q151.763 479.255 149.934 482.819 Q148.129 486.361 148.129 493.491 Q148.129 500.597 149.934 504.162 Q151.763 507.703 155.374 507.703 Q159.008 507.703 160.814 504.162 Q162.642 500.597 162.642 493.491 Q162.642 486.361 160.814 482.819 Q159.008 479.255 155.374 479.255 M155.374 475.551 Q161.184 475.551 164.24 480.157 Q167.318 484.741 167.318 493.491 Q167.318 502.217 164.24 506.824 Q161.184 511.407 155.374 511.407 Q149.564 511.407 146.485 506.824 Q143.43 502.217 143.43 493.491 Q143.43 484.741 146.485 480.157 Q149.564 475.551 155.374 475.551 Z" fill="#000000" fill-rule="nonzero" fill-opacity="1" /><path clip-path="url(#clip620)" d="M171.889 480.128 L185.148 480.128 L185.148 483.325 L167.318 483.325 L167.318 480.128 Q169.481 477.89 173.205 474.128 Q176.948 470.348 177.907 469.257 Q179.731 467.207 180.446 465.797 Q181.18 464.367 181.18 462.994 Q181.18 460.756 179.6 459.346 Q178.039 457.935 175.519 457.935 Q173.732 457.935 171.738 458.556 Q169.763 459.176 167.506 460.436 L167.506 456.6 Q169.801 455.678 171.795 455.208 Q173.788 454.738 175.443 454.738 Q179.807 454.738 182.402 456.919 Q184.998 459.101 184.998 462.75 Q184.998 464.48 184.339 466.041 Q183.7 467.583 181.988 469.69 Q181.518 470.235 178.998 472.849 Q176.478 475.445 171.889 480.128 Z" fill="#000000" fill-rule="nonzero" fill-opacity="1" /><path clip-path="url(#clip620)" d="M193.123 478.548 L197.091 478.548 L197.091 483.325 L193.123 483.325 L193.123 478.548 Z" fill="#000000" fill-rule="nonzero" fill-opacity="1" /><path clip-path="url(#clip620)" d="M205.404 455.245 L220.319 455.245 L220.319 458.443 L208.883 458.443 L208.883 465.326 Q209.711 465.044 210.539 464.913 Q211.366 464.762 212.194 464.762 Q216.896 464.762 219.642 467.339 Q222.387 469.915 222.387 474.316 Q222.387 478.849 219.566 481.369 Q216.745 483.871 211.611 483.871 Q209.843 483.871 208 483.57 Q206.175 483.269 204.219 482.667 L204.219 478.849 Q205.912 479.771 207.717 480.222 Q209.523 480.674 211.535 480.674 Q214.789 480.674 216.689 478.962 Q218.588 477.251 218.588 474.316 Q218.588 471.382 216.689 469.671 Q214.789 467.959 211.535 467.959 Q210.012 467.959 208.489 468.298 Q206.984 468.637 205.404 469.351 L205.404 455.245 Z" fill="#000000" fill-rule="nonzero" fill-opacity="1" /><path clip-path="url(#clip620)" d="M20.8447 1104.47 Q20.8447 1111.47 26.0645 1115.61 Q31.2844 1119.72 40.2919 1119.72 Q49.2675 1119.72 54.4874 1115.61 Q59.7073 1111.47 59.7073 1104.47 Q59.7073 1097.47 54.4874 1093.39 Q49.2675 1089.29 40.2919 1089.29 Q31.2844 1089.29 26.0645 1093.39 Q20.8447 1097.47 20.8447 1104.47 M15.6248 1104.47 Q15.6248 1094.48 22.3406 1088.49 Q29.0246 1082.51 40.2919 1082.51 Q51.5274 1082.51 58.2432 1088.49 Q64.9272 1094.48 64.9272 1104.47 Q64.9272 1114.5 58.2432 1120.51 Q51.5592 1126.5 40.2919 1126.5 Q29.0246 1126.5 22.3406 1120.51 Q15.6248 1114.5 15.6248 1104.47 Z" fill="#000000" fill-rule="nonzero" fill-opacity="1" /><path clip-path="url(#clip620)" d="M42.4881 1043.07 L64.0042 1043.07 L64.0042 1048.93 L42.679 1048.93 Q37.6183 1048.93 35.1038 1050.9 Q32.5894 1052.88 32.5894 1056.82 Q32.5894 1061.57 35.6131 1064.3 Q38.6368 1067.04 43.8567 1067.04 L64.0042 1067.04 L64.0042 1072.93 L28.3562 1072.93 L28.3562 1067.04 L33.8944 1067.04 Q30.6797 1064.94 29.0883 1062.11 Q27.4968 1059.24 27.4968 1055.52 Q27.4968 1049.37 31.3163 1046.22 Q35.1038 1043.07 42.4881 1043.07 Z" fill="#000000" fill-rule="nonzero" fill-opacity="1" /><path clip-path="url(#clip620)" d="M44.7161 1000.9 L47.5806 1000.9 L47.5806 1027.83 Q53.6281 1027.44 56.8109 1024.2 Q59.9619 1020.92 59.9619 1015.1 Q59.9619 1011.72 59.1344 1008.57 Q58.3069 1005.39 56.6518 1002.27 L62.1899 1002.27 Q63.5267 1005.42 64.227 1008.73 Q64.9272 1012.04 64.9272 1015.45 Q64.9272 1023.98 59.9619 1028.97 Q54.9967 1033.94 46.5303 1033.94 Q37.7774 1033.94 32.6531 1029.23 Q27.4968 1024.48 27.4968 1016.46 Q27.4968 1009.27 32.1438 1005.1 Q36.7589 1000.9 44.7161 1000.9 M42.9973 1006.76 Q38.1912 1006.82 35.3266 1009.46 Q32.4621 1012.07 32.4621 1016.4 Q32.4621 1021.3 35.2312 1024.26 Q38.0002 1027.19 43.0292 1027.64 L42.9973 1006.76 Z" fill="#000000" fill-rule="nonzero" fill-opacity="1" /><path clip-path="url(#clip620)" d="M43.5384 994.248 L43.5384 977.092 L48.7583 977.092 L48.7583 994.248 L43.5384 994.248 Z" fill="#000000" fill-rule="nonzero" fill-opacity="1" /><path clip-path="url(#clip620)" d="M28.3562 971.172 L28.3562 965.316 L56.1743 957.995 L28.3562 950.706 L28.3562 943.8 L56.1743 936.479 L28.3562 929.19 L28.3562 923.334 L64.0042 932.66 L64.0042 939.566 L34.7856 947.237 L64.0042 954.94 L64.0042 961.846 L28.3562 971.172 Z" fill="#000000" fill-rule="nonzero" fill-opacity="1" /><path clip-path="url(#clip620)" d="M46.0847 898.253 Q46.0847 905.351 47.7079 908.088 Q49.3312 910.825 53.2461 910.825 Q56.3653 910.825 58.2114 908.788 Q60.0256 906.719 60.0256 903.186 Q60.0256 898.317 56.5881 895.388 Q53.1188 892.428 47.3897 892.428 L46.0847 892.428 L46.0847 898.253 M43.6657 886.572 L64.0042 886.572 L64.0042 892.428 L58.5933 892.428 Q61.8398 894.434 63.3994 897.425 Q64.9272 900.417 64.9272 904.746 Q64.9272 910.221 61.8716 913.467 Q58.7843 916.682 53.6281 916.682 Q47.6125 916.682 44.5569 912.671 Q41.5014 908.629 41.5014 900.64 L41.5014 892.428 L40.9285 892.428 Q36.8862 892.428 34.6901 895.102 Q32.4621 897.744 32.4621 902.55 Q32.4621 905.605 33.1941 908.502 Q33.9262 911.398 35.3903 914.072 L29.9795 914.072 Q28.7381 910.857 28.1334 907.833 Q27.4968 904.81 27.4968 901.945 Q27.4968 894.211 31.5072 890.391 Q35.5176 886.572 43.6657 886.572 Z" fill="#000000" fill-rule="nonzero" fill-opacity="1" /><path clip-path="url(#clip620)" d="M67.3143 859.677 Q73.68 862.159 75.6216 864.515 Q77.5631 866.87 77.5631 870.817 L77.5631 875.496 L72.6615 875.496 L72.6615 872.058 Q72.6615 869.639 71.5157 868.302 Q70.3699 866.966 66.1048 865.342 L63.4312 864.292 L28.3562 878.71 L28.3562 872.504 L56.238 861.364 L28.3562 850.224 L28.3562 844.017 L67.3143 859.677 Z" fill="#000000" fill-rule="nonzero" fill-opacity="1" /><path clip-path="url(#clip620)" d="M14.479 815.212 L14.479 809.356 L64.0042 809.356 L64.0042 815.212 L14.479 815.212 Z" fill="#000000" fill-rule="nonzero" fill-opacity="1" /><path clip-path="url(#clip620)" d="M32.4621 783.288 Q32.4621 787.999 36.1542 790.736 Q39.8145 793.473 46.212 793.473 Q52.6095 793.473 56.3017 790.768 Q59.9619 788.031 59.9619 783.288 Q59.9619 778.61 56.2698 775.872 Q52.5777 773.135 46.212 773.135 Q39.8781 773.135 36.186 775.872 Q32.4621 778.61 32.4621 783.288 M27.4968 783.288 Q27.4968 775.649 32.4621 771.289 Q37.4273 766.928 46.212 766.928 Q54.9649 766.928 59.9619 771.289 Q64.9272 775.649 64.9272 783.288 Q64.9272 790.959 59.9619 795.32 Q54.9649 799.648 46.212 799.648 Q37.4273 799.648 32.4621 795.32 Q27.4968 790.959 27.4968 783.288 Z" fill="#000000" fill-rule="nonzero" fill-opacity="1" /><path clip-path="url(#clip620)" d="M29.4065 734.495 L34.9447 734.495 Q33.6716 736.978 33.035 739.651 Q32.3984 742.325 32.3984 745.19 Q32.3984 749.55 33.7352 751.746 Q35.072 753.911 37.7456 753.911 Q39.7826 753.911 40.9603 752.351 Q42.1061 750.791 43.1565 746.081 L43.6021 744.076 Q44.9389 737.837 47.3897 735.227 Q49.8086 732.585 54.1691 732.585 Q59.1344 732.585 62.0308 736.532 Q64.9272 740.447 64.9272 747.322 Q64.9272 750.187 64.3543 753.306 Q63.8132 756.393 62.6992 759.831 L56.6518 759.831 Q58.3387 756.584 59.198 753.433 Q60.0256 750.282 60.0256 747.195 Q60.0256 743.057 58.6251 740.829 Q57.1929 738.601 54.6147 738.601 Q52.2276 738.601 50.9545 740.224 Q49.6813 741.816 48.5037 747.258 L48.0262 749.295 Q46.8804 754.738 44.5251 757.157 Q42.138 759.576 38.0002 759.576 Q32.9713 759.576 30.2341 756.011 Q27.4968 752.446 27.4968 745.89 Q27.4968 742.643 27.9743 739.779 Q28.4517 736.914 29.4065 734.495 Z" fill="#000000" fill-rule="nonzero" fill-opacity="1" /><path clip-path="url(#clip620)" d="M29.4065 700.534 L34.9447 700.534 Q33.6716 703.017 33.035 705.69 Q32.3984 708.364 32.3984 711.229 Q32.3984 715.589 33.7352 717.785 Q35.072 719.95 37.7456 719.95 Q39.7826 719.95 40.9603 718.39 Q42.1061 716.83 43.1565 712.12 L43.6021 710.115 Q44.9389 703.876 47.3897 701.266 Q49.8086 698.624 54.1691 698.624 Q59.1344 698.624 62.0308 702.571 Q64.9272 706.486 64.9272 713.361 Q64.9272 716.226 64.3543 719.345 Q63.8132 722.432 62.6992 725.87 L56.6518 725.87 Q58.3387 722.623 59.198 719.472 Q60.0256 716.321 60.0256 713.234 Q60.0256 709.096 58.6251 706.868 Q57.1929 704.64 54.6147 704.64 Q52.2276 704.64 50.9545 706.263 Q49.6813 707.855 48.5037 713.297 L48.0262 715.334 Q46.8804 720.777 44.5251 723.196 Q42.138 725.615 38.0002 725.615 Q32.9713 725.615 30.2341 722.05 Q27.4968 718.485 27.4968 711.929 Q27.4968 708.682 27.9743 705.818 Q28.4517 702.953 29.4065 700.534 Z" fill="#000000" fill-rule="nonzero" fill-opacity="1" /><path clip-path="url(#clip620)" d="M14.479 669.119 L14.479 655.624 L19.0304 655.624 L19.0304 663.263 L68.0464 663.263 L68.0464 655.624 L72.5979 655.624 L72.5979 669.119 L14.479 669.119 Z" fill="#000000" fill-rule="nonzero" fill-opacity="1" /><path clip-path="url(#clip620)" d="M33.7671 619.69 L14.479 619.69 L14.479 613.833 L64.0042 613.833 L64.0042 619.69 L58.657 619.69 Q61.8398 621.536 63.3994 624.368 Q64.9272 627.169 64.9272 631.116 Q64.9272 637.577 59.771 641.651 Q54.6147 645.694 46.212 645.694 Q37.8093 645.694 32.6531 641.651 Q27.4968 637.577 27.4968 631.116 Q27.4968 627.169 29.0564 624.368 Q30.5842 621.536 33.7671 619.69 M46.212 639.646 Q52.6732 639.646 56.3653 637.004 Q60.0256 634.331 60.0256 629.684 Q60.0256 625.037 56.3653 622.363 Q52.6732 619.69 46.212 619.69 Q39.7508 619.69 36.0905 622.363 Q32.3984 625.037 32.3984 629.684 Q32.3984 634.331 36.0905 637.004 Q39.7508 639.646 46.212 639.646 Z" fill="#000000" fill-rule="nonzero" fill-opacity="1" /><path clip-path="url(#clip620)" d="M41.3104 595.086 L58.7206 595.086 L58.7206 584.774 Q58.7206 579.586 56.5881 577.103 Q54.4238 574.589 49.9996 574.589 Q45.5436 574.589 43.4429 577.103 Q41.3104 579.586 41.3104 584.774 L41.3104 595.086 M21.7677 595.086 L36.0905 595.086 L36.0905 585.569 Q36.0905 580.859 34.34 578.567 Q32.5576 576.244 28.9291 576.244 Q25.3325 576.244 23.5501 578.567 Q21.7677 580.859 21.7677 585.569 L21.7677 595.086 M16.4842 601.516 L16.4842 585.092 Q16.4842 577.74 19.5397 573.761 Q22.5952 569.783 28.2289 569.783 Q32.5894 569.783 35.1675 571.82 Q37.7456 573.857 38.3822 577.803 Q39.4007 573.061 42.6472 570.451 Q45.8619 567.809 50.6998 567.809 Q57.0655 567.809 60.5348 572.138 Q64.0042 576.467 64.0042 584.455 L64.0042 601.516 L16.4842 601.516 Z" fill="#000000" fill-rule="nonzero" fill-opacity="1" /><path clip-path="url(#clip620)" d="M16.4842 546.643 L16.4842 541.232 L70.0516 557.783 L70.0516 563.194 L16.4842 546.643 Z" fill="#000000" fill-rule="nonzero" fill-opacity="1" /><path clip-path="url(#clip620)" d="M14.479 535.312 L14.479 529.424 L43.7294 529.424 L28.3562 511.95 L28.3562 504.47 L45.0344 523.377 L64.0042 503.675 L64.0042 511.313 L46.5939 529.424 L64.0042 529.424 L64.0042 535.312 L14.479 535.312 Z" fill="#000000" fill-rule="nonzero" fill-opacity="1" /><path clip-path="url(#clip620)" d="M35.1993 469.586 Q31.2526 467.39 29.3747 464.335 Q27.4968 461.279 27.4968 457.141 Q27.4968 451.571 31.4117 448.548 Q35.2948 445.524 42.4881 445.524 L64.0042 445.524 L64.0042 451.412 L42.679 451.412 Q37.5546 451.412 35.072 453.226 Q32.5894 455.041 32.5894 458.765 Q32.5894 463.316 35.6131 465.958 Q38.6368 468.6 43.8567 468.6 L64.0042 468.6 L64.0042 474.488 L42.679 474.488 Q37.5228 474.488 35.072 476.302 Q32.5894 478.116 32.5894 481.904 Q32.5894 486.392 35.6449 489.034 Q38.6686 491.675 43.8567 491.675 L64.0042 491.675 L64.0042 497.564 L28.3562 497.564 L28.3562 491.675 L33.8944 491.675 Q30.616 489.67 29.0564 486.869 Q27.4968 484.068 27.4968 480.217 Q27.4968 476.334 29.4702 473.629 Q31.4436 470.891 35.1993 469.586 Z" fill="#000000" fill-rule="nonzero" fill-opacity="1" /><path clip-path="url(#clip620)" d="M14.479 420.157 L72.5979 420.157 L72.5979 433.652 L68.0464 433.652 L68.0464 426.045 L19.0304 426.045 L19.0304 433.652 L14.479 433.652 L14.479 420.157 Z" fill="#000000" fill-rule="nonzero" fill-opacity="1" /><path clip-path="url(#clip620)" d="M807.716 20.1573 L796.616 50.2555 L818.856 50.2555 L807.716 20.1573 M803.098 12.096 L812.374 12.096 L835.424 72.576 L826.917 72.576 L821.408 57.061 L794.145 57.061 L788.636 72.576 L780.007 72.576 L803.098 12.096 Z" fill="#000000" fill-rule="nonzero" fill-opacity="1" /><path clip-path="url(#clip620)" d="M849.845 14.324 L849.845 27.2059 L865.198 27.2059 L865.198 32.9987 L849.845 32.9987 L849.845 57.6282 Q849.845 63.1779 851.344 64.7578 Q852.883 66.3376 857.542 66.3376 L865.198 66.3376 L865.198 72.576 L857.542 72.576 Q848.913 72.576 845.632 69.3758 Q842.351 66.1351 842.351 57.6282 L842.351 32.9987 L836.882 32.9987 L836.882 27.2059 L842.351 27.2059 L842.351 14.324 L849.845 14.324 Z" fill="#000000" fill-rule="nonzero" fill-opacity="1" /><path clip-path="url(#clip620)" d="M910.325 35.9153 Q913.12 30.8922 917.009 28.5022 Q920.898 26.1121 926.164 26.1121 Q933.253 26.1121 937.101 31.0947 Q940.95 36.0368 940.95 45.1919 L940.95 72.576 L933.456 72.576 L933.456 45.4349 Q933.456 38.913 931.147 35.7533 Q928.838 32.5936 924.098 32.5936 Q918.305 32.5936 914.943 36.4419 Q911.581 40.2903 911.581 46.9338 L911.581 72.576 L904.087 72.576 L904.087 45.4349 Q904.087 38.8725 901.778 35.7533 Q899.469 32.5936 894.648 32.5936 Q888.936 32.5936 885.574 36.4824 Q882.212 40.3308 882.212 46.9338 L882.212 72.576 L874.718 72.576 L874.718 27.2059 L882.212 27.2059 L882.212 34.2544 Q884.764 30.082 888.329 28.0971 Q891.893 26.1121 896.795 26.1121 Q901.737 26.1121 905.18 28.6237 Q908.664 31.1352 910.325 35.9153 Z" fill="#000000" fill-rule="nonzero" fill-opacity="1" /><path clip-path="url(#clip620)" d="M973.398 32.4315 Q967.402 32.4315 963.918 37.1306 Q960.435 41.7891 960.435 49.9314 Q960.435 58.0738 963.878 62.7728 Q967.362 67.4314 973.398 67.4314 Q979.352 67.4314 982.836 62.7323 Q986.32 58.0333 986.32 49.9314 Q986.32 41.8701 982.836 37.1711 Q979.352 32.4315 973.398 32.4315 M973.398 26.1121 Q983.12 26.1121 988.669 32.4315 Q994.219 38.7509 994.219 49.9314 Q994.219 61.0714 988.669 67.4314 Q983.12 73.7508 973.398 73.7508 Q963.635 73.7508 958.085 67.4314 Q952.576 61.0714 952.576 49.9314 Q952.576 38.7509 958.085 32.4315 Q963.635 26.1121 973.398 26.1121 Z" fill="#000000" fill-rule="nonzero" fill-opacity="1" /><path clip-path="url(#clip620)" d="M1035.5 28.5427 L1035.5 35.5912 Q1032.34 33.9709 1028.94 33.1607 Q1025.53 32.3505 1021.89 32.3505 Q1016.34 32.3505 1013.54 34.0519 Q1010.79 35.7533 1010.79 39.156 Q1010.79 41.7486 1012.77 43.2475 Q1014.76 44.7058 1020.75 46.0426 L1023.3 46.6097 Q1031.24 48.3111 1034.57 51.4303 Q1037.93 54.509 1037.93 60.0587 Q1037.93 66.3781 1032.91 70.0644 Q1027.92 73.7508 1019.17 73.7508 Q1015.53 73.7508 1011.56 73.0216 Q1007.63 72.3329 1003.25 70.9151 L1003.25 63.2184 Q1007.38 65.3654 1011.4 66.4591 Q1015.41 67.5124 1019.33 67.5124 Q1024.6 67.5124 1027.44 65.73 Q1030.27 63.9071 1030.27 60.6258 Q1030.27 57.5877 1028.21 55.9673 Q1026.18 54.3469 1019.25 52.8481 L1016.66 52.2405 Q1009.73 50.7821 1006.66 47.7845 Q1003.58 44.7463 1003.58 39.4801 Q1003.58 33.0797 1008.11 29.5959 Q1012.65 26.1121 1021 26.1121 Q1025.13 26.1121 1028.77 26.7198 Q1032.42 27.3274 1035.5 28.5427 Z" fill="#000000" fill-rule="nonzero" fill-opacity="1" /><path clip-path="url(#clip620)" d="M1057.01 65.7705 L1057.01 89.8329 L1049.51 89.8329 L1049.51 27.2059 L1057.01 27.2059 L1057.01 34.0924 Q1059.36 30.0415 1062.92 28.0971 Q1066.53 26.1121 1071.51 26.1121 Q1079.77 26.1121 1084.92 32.6746 Q1090.1 39.2371 1090.1 49.9314 Q1090.1 60.6258 1084.92 67.1883 Q1079.77 73.7508 1071.51 73.7508 Q1066.53 73.7508 1062.92 71.8063 Q1059.36 69.8214 1057.01 65.7705 M1082.37 49.9314 Q1082.37 41.7081 1078.96 37.0496 Q1075.6 32.3505 1069.69 32.3505 Q1063.77 32.3505 1060.37 37.0496 Q1057.01 41.7081 1057.01 49.9314 Q1057.01 58.1548 1060.37 62.8538 Q1063.77 67.5124 1069.69 67.5124 Q1075.6 67.5124 1078.96 62.8538 Q1082.37 58.1548 1082.37 49.9314 Z" fill="#000000" fill-rule="nonzero" fill-opacity="1" /><path clip-path="url(#clip620)" d="M1140.17 45.1919 L1140.17 72.576 L1132.72 72.576 L1132.72 45.4349 Q1132.72 38.994 1130.21 35.7938 Q1127.7 32.5936 1122.67 32.5936 Q1116.64 32.5936 1113.15 36.4419 Q1109.67 40.2903 1109.67 46.9338 L1109.67 72.576 L1102.18 72.576 L1102.18 9.54393 L1109.67 9.54393 L1109.67 34.2544 Q1112.34 30.163 1115.95 28.1376 Q1119.59 26.1121 1124.33 26.1121 Q1132.15 26.1121 1136.16 30.9732 Q1140.17 35.7938 1140.17 45.1919 Z" fill="#000000" fill-rule="nonzero" fill-opacity="1" /><path clip-path="url(#clip620)" d="M1193.85 48.0275 L1193.85 51.6733 L1159.58 51.6733 Q1160.06 59.3701 1164.2 63.421 Q1168.37 67.4314 1175.78 67.4314 Q1180.07 67.4314 1184.09 66.3781 Q1188.14 65.3249 1192.11 63.2184 L1192.11 70.267 Q1188.1 71.9684 1183.88 72.8596 Q1179.67 73.7508 1175.34 73.7508 Q1164.48 73.7508 1158.12 67.4314 Q1151.8 61.1119 1151.8 50.3365 Q1151.8 39.1965 1157.79 32.6746 Q1163.83 26.1121 1174.04 26.1121 Q1183.19 26.1121 1188.5 32.0264 Q1193.85 37.9003 1193.85 48.0275 M1186.39 45.84 Q1186.31 39.7232 1182.95 36.0774 Q1179.63 32.4315 1174.12 32.4315 Q1167.88 32.4315 1164.11 35.9558 Q1160.39 39.4801 1159.82 45.8805 L1186.39 45.84 Z" fill="#000000" fill-rule="nonzero" fill-opacity="1" /><path clip-path="url(#clip620)" d="M1232.37 34.1734 Q1231.12 33.4443 1229.62 33.1202 Q1228.16 32.7556 1226.38 32.7556 Q1220.06 32.7556 1216.65 36.8875 Q1213.29 40.9789 1213.29 48.6757 L1213.29 72.576 L1205.8 72.576 L1205.8 27.2059 L1213.29 27.2059 L1213.29 34.2544 Q1215.64 30.1225 1219.41 28.1376 Q1223.18 26.1121 1228.56 26.1121 Q1229.33 26.1121 1230.27 26.2337 Q1231.2 26.3147 1232.33 26.5172 L1232.37 34.1734 Z" fill="#000000" fill-rule="nonzero" fill-opacity="1" /><path clip-path="url(#clip620)" d="M1240.19 27.2059 L1247.64 27.2059 L1247.64 72.576 L1240.19 72.576 L1240.19 27.2059 M1240.19 9.54393 L1247.64 9.54393 L1247.64 18.9825 L1240.19 18.9825 L1240.19 9.54393 Z" fill="#000000" fill-rule="nonzero" fill-opacity="1" /><path clip-path="url(#clip620)" d="M1295.89 28.9478 L1295.89 35.9153 Q1292.73 34.1734 1289.53 33.3227 Q1286.37 32.4315 1283.13 32.4315 Q1275.88 32.4315 1271.87 37.0496 Q1267.86 41.6271 1267.86 49.9314 Q1267.86 58.2358 1271.87 62.8538 Q1275.88 67.4314 1283.13 67.4314 Q1286.37 67.4314 1289.53 66.5807 Q1292.73 65.6895 1295.89 63.9476 L1295.89 70.8341 Q1292.77 72.2924 1289.41 73.0216 Q1286.09 73.7508 1282.32 73.7508 Q1272.07 73.7508 1266.03 67.3098 Q1260 60.8689 1260 49.9314 Q1260 38.832 1266.08 32.472 Q1272.19 26.1121 1282.81 26.1121 Q1286.25 26.1121 1289.53 26.8413 Q1292.81 27.5299 1295.89 28.9478 Z" fill="#000000" fill-rule="nonzero" fill-opacity="1" /><path clip-path="url(#clip620)" d="M1355.76 20.1573 L1344.66 50.2555 L1366.9 50.2555 L1355.76 20.1573 M1351.14 12.096 L1360.42 12.096 L1383.47 72.576 L1374.96 72.576 L1369.45 57.061 L1342.19 57.061 L1336.68 72.576 L1328.05 72.576 L1351.14 12.096 Z" fill="#000000" fill-rule="nonzero" fill-opacity="1" /><path clip-path="url(#clip620)" d="M1397.89 14.324 L1397.89 27.2059 L1413.24 27.2059 L1413.24 32.9987 L1397.89 32.9987 L1397.89 57.6282 Q1397.89 63.1779 1399.39 64.7578 Q1400.93 66.3376 1405.59 66.3376 L1413.24 66.3376 L1413.24 72.576 L1405.59 72.576 Q1396.96 72.576 1393.68 69.3758 Q1390.4 66.1351 1390.4 57.6282 L1390.4 32.9987 L1384.93 32.9987 L1384.93 27.2059 L1390.4 27.2059 L1390.4 14.324 L1397.89 14.324 Z" fill="#000000" fill-rule="nonzero" fill-opacity="1" /><path clip-path="url(#clip620)" d="M1430.42 14.324 L1430.42 27.2059 L1445.77 27.2059 L1445.77 32.9987 L1430.42 32.9987 L1430.42 57.6282 Q1430.42 63.1779 1431.92 64.7578 Q1433.46 66.3376 1438.12 66.3376 L1445.77 66.3376 L1445.77 72.576 L1438.12 72.576 Q1429.49 72.576 1426.21 69.3758 Q1422.93 66.1351 1422.93 57.6282 L1422.93 32.9987 L1417.46 32.9987 L1417.46 27.2059 L1422.93 27.2059 L1422.93 14.324 L1430.42 14.324 Z" fill="#000000" fill-rule="nonzero" fill-opacity="1" /><path clip-path="url(#clip620)" d="M1494.38 48.0275 L1494.38 51.6733 L1460.11 51.6733 Q1460.6 59.3701 1464.73 63.421 Q1468.9 67.4314 1476.32 67.4314 Q1480.61 67.4314 1484.62 66.3781 Q1488.67 65.3249 1492.64 63.2184 L1492.64 70.267 Q1488.63 71.9684 1484.42 72.8596 Q1480.21 73.7508 1475.87 73.7508 Q1465.02 73.7508 1458.66 67.4314 Q1452.34 61.1119 1452.34 50.3365 Q1452.34 39.1965 1458.33 32.6746 Q1464.37 26.1121 1474.58 26.1121 Q1483.73 26.1121 1489.04 32.0264 Q1494.38 37.9003 1494.38 48.0275 M1486.93 45.84 Q1486.85 39.7232 1483.49 36.0774 Q1480.17 32.4315 1474.66 32.4315 Q1468.42 32.4315 1464.65 35.9558 Q1460.92 39.4801 1460.36 45.8805 L1486.93 45.84 Z" fill="#000000" fill-rule="nonzero" fill-opacity="1" /><path clip-path="url(#clip620)" d="M1544.33 45.1919 L1544.33 72.576 L1536.88 72.576 L1536.88 45.4349 Q1536.88 38.994 1534.37 35.7938 Q1531.86 32.5936 1526.83 32.5936 Q1520.8 32.5936 1517.31 36.4419 Q1513.83 40.2903 1513.83 46.9338 L1513.83 72.576 L1506.33 72.576 L1506.33 27.2059 L1513.83 27.2059 L1513.83 34.2544 Q1516.5 30.163 1520.11 28.1376 Q1523.75 26.1121 1528.49 26.1121 Q1536.31 26.1121 1540.32 30.9732 Q1544.33 35.7938 1544.33 45.1919 Z" fill="#000000" fill-rule="nonzero" fill-opacity="1" /><path clip-path="url(#clip620)" d="M1558.43 54.671 L1558.43 27.2059 L1565.88 27.2059 L1565.88 54.3874 Q1565.88 60.8284 1568.39 64.0691 Q1570.91 67.2693 1575.93 67.2693 Q1581.96 67.2693 1585.45 63.421 Q1588.97 59.5726 1588.97 52.9291 L1588.97 27.2059 L1596.43 27.2059 L1596.43 72.576 L1588.97 72.576 L1588.97 65.6084 Q1586.26 69.7404 1582.65 71.7658 Q1579.09 73.7508 1574.35 73.7508 Q1566.53 73.7508 1562.48 68.8897 Q1558.43 64.0286 1558.43 54.671 M1577.18 26.1121 L1577.18 26.1121 Z" fill="#000000" fill-rule="nonzero" fill-opacity="1" /><path clip-path="url(#clip620)" d="M1632.4 49.7694 Q1623.37 49.7694 1619.88 51.8354 Q1616.4 53.9013 1616.4 58.8839 Q1616.4 62.8538 1618.99 65.2034 Q1621.62 67.5124 1626.12 67.5124 Q1632.32 67.5124 1636.04 63.1374 Q1639.81 58.7219 1639.81 51.4303 L1639.81 49.7694 L1632.4 49.7694 M1647.27 46.6907 L1647.27 72.576 L1639.81 72.576 L1639.81 65.6895 Q1637.26 69.8214 1633.45 71.8063 Q1629.64 73.7508 1624.13 73.7508 Q1617.17 73.7508 1613.04 69.8619 Q1608.94 65.9325 1608.94 59.3701 Q1608.94 51.7138 1614.05 47.825 Q1619.19 43.9361 1629.36 43.9361 L1639.81 43.9361 L1639.81 43.2069 Q1639.81 38.0623 1636.41 35.2672 Q1633.05 32.4315 1626.93 32.4315 Q1623.04 32.4315 1619.35 33.3632 Q1615.67 34.295 1612.27 36.1584 L1612.27 29.2718 Q1616.36 27.692 1620.21 26.9223 Q1624.05 26.1121 1627.7 26.1121 Q1637.54 26.1121 1642.4 31.2163 Q1647.27 36.3204 1647.27 46.6907 Z" fill="#000000" fill-rule="nonzero" fill-opacity="1" /><path clip-path="url(#clip620)" d="M1669.99 14.324 L1669.99 27.2059 L1685.34 27.2059 L1685.34 32.9987 L1669.99 32.9987 L1669.99 57.6282 Q1669.99 63.1779 1671.49 64.7578 Q1673.03 66.3376 1677.69 66.3376 L1685.34 66.3376 L1685.34 72.576 L1677.69 72.576 Q1669.06 72.576 1665.78 69.3758 Q1662.5 66.1351 1662.5 57.6282 L1662.5 32.9987 L1657.03 32.9987 L1657.03 27.2059 L1662.5 27.2059 L1662.5 14.324 L1669.99 14.324 Z" fill="#000000" fill-rule="nonzero" fill-opacity="1" /><path clip-path="url(#clip620)" d="M1695.15 27.2059 L1702.6 27.2059 L1702.6 72.576 L1695.15 72.576 L1695.15 27.2059 M1695.15 9.54393 L1702.6 9.54393 L1702.6 18.9825 L1695.15 18.9825 L1695.15 9.54393 Z" fill="#000000" fill-rule="nonzero" fill-opacity="1" /><path clip-path="url(#clip620)" d="M1735.78 32.4315 Q1729.78 32.4315 1726.3 37.1306 Q1722.81 41.7891 1722.81 49.9314 Q1722.81 58.0738 1726.26 62.7728 Q1729.74 67.4314 1735.78 67.4314 Q1741.73 67.4314 1745.22 62.7323 Q1748.7 58.0333 1748.7 49.9314 Q1748.7 41.8701 1745.22 37.1711 Q1741.73 32.4315 1735.78 32.4315 M1735.78 26.1121 Q1745.5 26.1121 1751.05 32.4315 Q1756.6 38.7509 1756.6 49.9314 Q1756.6 61.0714 1751.05 67.4314 Q1745.5 73.7508 1735.78 73.7508 Q1726.02 73.7508 1720.47 67.4314 Q1714.96 61.0714 1714.96 49.9314 Q1714.96 38.7509 1720.47 32.4315 Q1726.02 26.1121 1735.78 26.1121 Z" fill="#000000" fill-rule="nonzero" fill-opacity="1" /><path clip-path="url(#clip620)" d="M1806.67 45.1919 L1806.67 72.576 L1799.21 72.576 L1799.21 45.4349 Q1799.21 38.994 1796.7 35.7938 Q1794.19 32.5936 1789.17 32.5936 Q1783.13 32.5936 1779.65 36.4419 Q1776.17 40.2903 1776.17 46.9338 L1776.17 72.576 L1768.67 72.576 L1768.67 27.2059 L1776.17 27.2059 L1776.17 34.2544 Q1778.84 30.163 1782.44 28.1376 Q1786.09 26.1121 1790.83 26.1121 Q1798.65 26.1121 1802.66 30.9732 Q1806.67 35.7938 1806.67 45.1919 Z" fill="#000000" fill-rule="nonzero" fill-opacity="1" /><path clip-path="url(#clip620)" d="M1822.59 62.2867 L1831.14 62.2867 L1831.14 72.576 L1822.59 72.576 L1822.59 62.2867 Z" fill="#000000" fill-rule="nonzero" fill-opacity="1" /><polyline clip-path="url(#clip622)" style="stroke:#009af9; stroke-linecap:round; stroke-linejoin:round; stroke-width:4; stroke-opacity:1; fill:none" points="317.662,1385.24 320.961,1365.52 324.259,1358.52 327.558,1352.74 330.856,1346.65 334.155,1339.94 337.453,1332.56 340.752,1324.54 344.05,1315.91 347.349,1306.68 350.647,1296.81 353.946,1286.2 357.244,1274.71 360.543,1262.1 363.841,1248.04 367.14,1232.08 370.439,1213.64 373.737,1192.15 377.036,1167.28 380.334,1139.85 383.633,1113.42 386.931,1095.46 390.23,1092.47 393.528,1101.9 396.827,1115.74 400.125,1128.57 403.424,1138.51 406.722,1145.43 410.021,1149.78 413.319,1152.07 416.618,1152.78 419.916,1152.25 423.215,1150.77 426.514,1148.53 429.812,1145.67 433.111,1142.3 436.409,1138.49 439.708,1134.27 443.006,1129.67 446.305,1124.69 449.603,1119.32 452.902,1113.51 456.2,1107.22 459.499,1100.36 462.797,1092.82 466.096,1084.44 469.394,1075.01 472.693,1064.2 475.991,1051.48 479.29,1035.75 482.589,1014.31 485.887,983.26 489.186,940.072 492.484,888.758 495.783,838.427 499.081,796.797 502.38,768.131 505.678,751.54 508.977,743.516 512.275,737.821 515.574,735.695 518.872,741.313 522.171,761.986 525.469,798.765 528.768,845.02 532.066,895.494 535.365,941.57 538.664,976.085 541.962,998.555 545.261,1012.82 548.559,1022.5 551.858,1029.54 555.156,1034.75 558.455,1038.59 561.753,1041.4 565.052,1043.39 568.35,1044.74 571.649,1045.58 574.947,1046 578.246,1046.09 581.544,1045.9 584.843,1045.48 588.141,1044.87 591.44,1044.11 594.739,1043.21 598.037,1042.2 601.336,1041.1 604.634,1039.92 607.933,1038.67 611.231,1037.37 614.53,1036.01 617.828,1034.61 621.127,1033.18 624.425,1031.7 627.724,1030.2 631.022,1028.67 634.321,1027.11 637.619,1025.52 640.918,1023.9 644.216,1022.25 647.515,1020.57 650.814,1018.85 654.112,1017.09 657.411,1015.27 660.709,1013.38 664.008,1011.41 667.306,1009.31 670.605,1007.07 673.903,1004.61 677.202,1001.84 680.5,998.635 683.799,994.762 687.097,989.848 690.396,983.239 693.694,973.788 696.993,959.566 700.291,938.303 703.59,912.94 706.889,904.731 710.187,924.262 713.486,946.856 716.784,961.66 720.083,970.131 723.381,974.789 726.68,977.239 729.978,978.382 733.277,978.721 736.575,978.547 739.874,978.031 743.172,977.281 746.471,976.364 749.769,975.326 753.068,974.196 756.366,972.995 759.665,971.739 762.964,970.436 766.262,969.093 769.561,967.716 772.859,966.308 776.158,964.871 779.456,963.406 782.755,961.912 786.053,960.39 789.352,958.839 792.65,957.257 795.949,955.642 799.247,953.991 802.546,952.301 805.844,950.568 809.143,948.788 812.442,946.956 815.74,945.065 819.039,943.11 822.337,941.081 825.636,938.97 828.934,936.766 832.233,934.458 835.531,932.032 838.83,929.47 842.128,926.755 845.427,923.863 848.725,920.77 852.024,917.445 855.322,913.853 858.621,909.951 861.919,905.689 865.218,901.008 868.517,895.838 871.815,890.094 875.114,883.676 878.412,876.464 881.711,868.312 885.009,859.05 888.308,848.475 891.606,836.348 894.905,822.397 898.203,806.333 901.502,787.888 904.8,766.934 908.099,743.779 911.397,719.822 914.696,698.656 917.994,686.446 921.293,688.362 924.592,702.981 927.89,724.01 931.189,746.125 934.487,766.702 937.786,784.865 941.084,800.523 944.383,813.879 947.681,825.219 950.98,834.829 954.278,842.971 957.577,849.87 960.875,855.718 964.174,860.678 967.472,864.885 970.771,868.453 974.069,871.476 977.368,874.034 980.667,876.194 983.965,878.01 987.264,879.532 990.562,880.797 993.861,881.84 997.159,882.69 1000.46,883.371 1003.76,883.903 1007.05,884.306 1010.35,884.594 1013.65,884.78 1016.95,884.877 1020.25,884.894 1023.55,884.839 1026.85,884.722 1030.14,884.547 1033.44,884.322 1036.74,884.05 1040.04,883.738 1043.34,883.388 1046.64,883.004 1049.94,882.59 1053.23,882.149 1056.53,881.682 1059.83,881.192 1063.13,880.682 1066.43,880.152 1069.73,879.605 1073.03,879.042 1076.32,878.465 1079.62,877.874 1082.92,877.27 1086.22,876.655 1089.52,876.03 1092.82,875.394 1096.12,874.75 1099.41,874.097 1102.71,873.437 1106.01,872.769 1109.31,872.094 1112.61,871.413 1115.91,870.726 1119.2,870.034 1122.5,869.336 1125.8,868.633 1129.1,867.926 1132.4,867.214 1135.7,866.498 1139,865.778 1142.29,865.054 1145.59,864.326 1148.89,863.595 1152.19,862.86 1155.49,862.122 1158.79,861.38 1162.09,860.635 1165.38,859.887 1168.68,859.136 1171.98,858.381 1175.28,857.623 1178.58,856.862 1181.88,856.098 1185.18,855.33 1188.47,854.559 1191.77,853.785 1195.07,853.007 1198.37,852.225 1201.67,851.44 1204.97,850.65 1208.27,849.857 1211.56,849.059 1214.86,848.256 1218.16,847.449 1221.46,846.636 1224.76,845.818 1228.06,844.995 1231.35,844.165 1234.65,843.329 1237.95,842.486 1241.25,841.635 1244.55,840.776 1247.85,839.909 1251.15,839.032 1254.44,838.145 1257.74,837.247 1261.04,836.337 1264.34,835.413 1267.64,834.475 1270.94,833.522 1274.24,832.55 1277.53,831.56 1280.83,830.548 1284.13,829.512 1287.43,828.449 1290.73,827.357 1294.03,826.23 1297.33,825.066 1300.62,823.859 1303.92,822.603 1307.22,821.29 1310.52,819.913 1313.82,818.46 1317.12,816.92 1320.42,815.277 1323.71,813.514 1327.01,811.606 1330.31,809.526 1333.61,807.239 1336.91,804.698 1340.21,801.846 1343.5,798.609 1346.8,794.889 1350.1,790.558 1353.4,785.448 1356.7,779.333 1360,771.917 1363.3,762.825 1366.59,751.642 1369.89,738.125 1373.19,722.546 1376.49,705.288 1379.79,686.635 1383.09,669.575 1386.39,660.727 1389.68,665.069 1392.98,679.908 1396.28,698.45 1399.58,715.984 1402.88,730.729 1406.18,742.48 1409.48,751.602 1412.77,758.581 1416.07,763.865 1419.37,767.826 1422.67,770.766 1425.97,772.924 1429.27,774.461 1432.57,775.484 1435.86,776.081 1439.16,776.323 1442.46,776.267 1445.76,775.956 1449.06,775.423 1452.36,774.692 1455.65,773.779 1458.95,772.698 1462.25,771.457 1465.55,770.058 1468.85,768.504 1472.15,766.793 1475.45,764.919 1478.74,762.875 1482.04,760.652 1485.34,758.235 1488.64,755.609 1491.94,752.755 1495.24,749.648 1498.54,746.261 1501.83,742.562 1505.13,738.51 1508.43,734.059 1511.73,729.154 1515.03,723.727 1518.33,717.691 1521.63,710.934 1524.92,703.309 1528.22,694.75 1531.52,685.545 1534.82,675.422 1538.12,663.772 1541.42,650.386 1544.72,635.066 1548.01,617.557 1551.31,597.608 1554.61,575.101 1557.91,550.383 1561.21,525.024 1564.51,503.14 1567.8,491.766 1571.1,496.258 1574.4,514.015 1577.7,537.752 1581,562.049 1584.3,584.494 1587.6,604.373 1590.89,621.671 1594.19,636.607 1597.49,649.456 1600.79,660.526 1604.09,670.136 1607.39,678.48 1610.69,685.685 1613.98,691.892 1617.28,697.235 1620.58,701.833 1623.88,705.784 1627.18,709.17 1630.48,712.063 1633.78,714.522 1637.07,716.598 1640.37,718.334 1643.67,719.768 1646.97,720.93 1650.27,721.849 1653.57,722.547 1656.87,723.043 1660.16,723.353 1663.46,723.491 1666.76,723.467 1670.06,723.291 1673.36,722.968 1676.66,722.501 1679.95,721.892 1683.25,721.139 1686.55,720.234 1689.85,719.166 1693.15,717.912 1696.45,716.431 1699.75,714.65 1703.04,712.422 1706.34,709.443 1709.64,705.134 1712.94,699.262 1716.24,695.665 1719.54,696.856 1722.84,697.404 1726.13,696.066 1729.43,693.466 1732.73,689.957 1736.03,685.618 1739.33,680.368 1742.63,673.995 1745.93,666.124 1749.22,656.168 1752.52,643.366 1755.82,627.51 1759.12,610.376 1762.42,597.369 1765.72,594.33 1769.02,593.097 1772.31,584.946 1775.61,571.018 1778.91,554.691 1782.21,533.596 1785.51,509.133 1788.81,487.456 1792.1,478.158 1795.4,486.986 1798.7,508.521 1802,533.72 1805.3,557.411 1808.6,577.885 1811.9,594.96 1815.19,608.966 1818.49,620.348 1821.79,629.532 1825.09,636.881 1828.39,642.697 1831.69,647.216 1834.99,650.618 1838.28,653.032 1841.58,654.533 1844.88,655.142 1848.18,654.808 1851.48,653.378 1854.78,650.552 1858.08,645.826 1861.37,638.633 1864.67,629.388 1867.97,621.194 1871.27,615.131 1874.57,606.813 1877.87,597.431 1881.17,595.839 1884.46,605.24 1887.76,618.141 1891.06,628.664 1894.36,635.747 1897.66,640.064 1900.96,642.408 1904.25,643.332 1907.55,643.143 1910.85,641.949 1914.15,639.672 1917.45,636.122 1920.75,631.731 1924.05,628.707 1927.34,628.254 1930.64,629.595 1933.94,630.973 1937.24,631.499 1940.54,631.184 1943.84,630.258 1947.14,628.91 1950.43,627.262 1953.73,625.387 1957.03,623.326 1960.33,621.094 1963.63,618.68 1966.93,616.03 1970.23,613.025 1973.52,609.66 1976.82,606.799 1980.12,604.807 1983.42,602.747 1986.72,600.284 1990.02,597.537 1993.32,594.608 1996.61,591.544 1999.91,588.367 2003.21,585.083 2006.51,581.697 2009.81,578.209 2013.11,574.616 2016.4,570.917 2019.7,567.108 2023,563.184 2026.3,559.142 2029.6,554.976 2032.9,550.68 2036.2,546.249 2039.49,541.674 2042.79,536.95 2046.09,532.066 2049.39,527.015 2052.69,521.787 2055.99,516.37 2059.29,510.752 2062.58,504.921 2065.88,498.861 2069.18,492.555 2072.48,485.986 2075.78,479.133 2079.08,471.972 2082.38,464.477 2085.67,456.618 2088.97,448.361 2092.27,439.665 2095.57,430.485 2098.87,420.765 2102.17,410.441 2105.47,399.435 2108.76,387.655 2112.06,375.005 2115.36,361.413 2118.66,346.911 2121.96,331.565 2125.26,315.103 2128.55,297.04 2131.85,277.111 2135.15,255.284 2138.45,231.763 2141.75,207.345 2145.05,184.184 2148.35,166.611 2151.64,160.256 2154.94,167.735 2158.24,185.774 2161.54,208.744 2164.84,232.62 2168.14,255.481 2171.44,276.652 2174.73,296.021 2178.03,313.694 2181.33,329.843 2184.63,344.648 2187.93,358.274 2191.23,370.867 2194.53,382.549 2197.82,393.427 2201.12,403.591 2204.42,413.116 2207.72,422.068 2211.02,430.503 2214.32,438.469 2217.62,446.008 2220.91,453.158 2224.21,459.949 2227.51,466.409 2230.81,472.564 2234.11,478.436 2237.41,484.043 2240.7,489.404 2244,494.534 2247.3,499.446 2250.6,504.154 2253.9,508.669 2257.2,512.999 2260.5,517.156 2263.79,521.145 2267.09,524.976 2270.39,528.653 2273.69,532.182 2276.99,535.568 2280.29,538.814 2283.59,541.923 2286.88,544.897 2290.18,547.735 2293.48,550.438 "/>
<polyline clip-path="url(#clip622)" style="stroke:#e26f46; stroke-linecap:round; stroke-linejoin:round; stroke-width:4; stroke-opacity:1; fill:none" points="317.662,1386.4 320.961,1368.65 324.259,1364.45 327.558,1362.38 330.856,1360.81 334.155,1359.32 337.453,1357.76 340.752,1356.07 344.05,1354.21 347.349,1352.19 350.647,1349.99 353.946,1347.61 357.244,1345.05 360.543,1342.3 363.841,1339.38 367.14,1336.28 370.439,1332.99 373.737,1329.53 377.036,1325.9 380.334,1322.08 383.633,1318.09 386.931,1313.92 390.23,1309.57 393.528,1305.04 396.827,1300.32 400.125,1295.41 403.424,1290.31 406.722,1285 410.021,1279.49 413.319,1273.76 416.618,1267.81 419.916,1261.61 423.215,1255.16 426.514,1248.44 429.812,1241.44 433.111,1234.12 436.409,1226.46 439.708,1218.43 443.006,1210 446.305,1201.12 449.603,1191.75 452.902,1181.81 456.2,1171.23 459.499,1159.91 462.797,1147.73 466.096,1134.53 469.394,1120.07 472.693,1104.03 475.991,1085.86 479.29,1064.34 482.589,1036.46 485.887,998.55 489.186,949.241 492.484,893.755 495.783,841.123 499.081,798.334 502.38,769.153 505.678,752.349 508.977,744.277 512.275,738.528 515.574,736.4 518.872,742.087 522.171,763.158 525.469,800.95 528.768,849.168 532.066,903.553 535.365,956.489 538.664,1000.43 541.962,1033.02 545.261,1056.89 548.559,1075.73 551.858,1091.8 555.156,1105.94 558.455,1118.59 561.753,1130.02 565.052,1140.45 568.35,1150.01 571.649,1158.81 574.947,1166.96 578.246,1174.5 581.544,1181.51 584.843,1188.02 588.141,1194.07 591.44,1199.69 594.739,1204.89 598.037,1209.71 601.336,1214.16 604.634,1218.23 607.933,1221.95 611.231,1225.31 614.53,1228.31 617.828,1230.95 621.127,1233.21 624.425,1235.1 627.724,1236.58 631.022,1237.65 634.321,1238.27 637.619,1238.41 640.918,1238.04 644.216,1237.1 647.515,1235.56 650.814,1233.33 654.112,1230.35 657.411,1226.53 660.709,1221.76 664.008,1215.9 667.306,1208.81 670.605,1200.29 673.903,1190.12 677.202,1178 680.5,1163.56 683.799,1146.32 687.097,1125.64 690.396,1100.67 693.694,1070.29 696.993,1033.24 700.291,989.56 703.59,947.375 706.889,935.612 710.187,967.961 713.486,1013.83 716.784,1055.33 720.083,1089.91 723.381,1118.56 726.68,1142.53 729.978,1162.83 733.277,1180.21 736.575,1195.22 739.874,1208.28 743.172,1219.73 746.471,1229.81 749.769,1238.73 753.068,1246.67 756.366,1253.74 759.665,1260.08 762.964,1265.76 766.262,1270.88 769.561,1275.49 772.859,1279.66 776.158,1283.43 779.456,1286.85 782.755,1289.96 786.053,1292.78 789.352,1295.35 792.65,1297.69 795.949,1299.82 799.247,1301.76 802.546,1303.53 805.844,1305.14 809.143,1306.61 812.442,1307.94 815.74,1309.15 819.039,1310.25 822.337,1311.25 825.636,1312.15 828.934,1312.97 832.233,1313.7 835.531,1314.35 838.83,1314.94 842.128,1315.45 845.427,1315.91 848.725,1316.31 852.024,1316.66 855.322,1316.95 858.621,1317.2 861.919,1317.4 865.218,1317.56 868.517,1317.69 871.815,1317.77 875.114,1317.82 878.412,1317.84 881.711,1317.83 885.009,1317.79 888.308,1317.72 891.606,1317.63 894.905,1317.51 898.203,1317.37 901.502,1317.2 904.8,1317.02 908.099,1316.81 911.397,1316.59 914.696,1316.35 917.994,1316.09 921.293,1315.82 924.592,1315.53 927.89,1315.23 931.189,1314.92 934.487,1314.59 937.786,1314.25 941.084,1313.9 944.383,1313.53 947.681,1313.16 950.98,1312.78 954.278,1312.39 957.577,1311.99 960.875,1311.58 964.174,1311.16 967.472,1310.73 970.771,1310.3 974.069,1309.86 977.368,1309.42 980.667,1308.97 983.965,1308.51 987.264,1308.05 990.562,1307.58 993.861,1307.11 997.159,1306.63 1000.46,1306.15 1003.76,1305.66 1007.05,1305.18 1010.35,1304.68 1013.65,1304.19 1016.95,1303.69 1020.25,1303.18 1023.55,1302.68 1026.85,1302.17 1030.14,1301.66 1033.44,1301.14 1036.74,1300.63 1040.04,1300.11 1043.34,1299.59 1046.64,1299.07 1049.94,1298.54 1053.23,1298.02 1056.53,1297.49 1059.83,1296.97 1063.13,1296.44 1066.43,1295.91 1069.73,1295.38 1073.03,1294.84 1076.32,1294.31 1079.62,1293.78 1082.92,1293.24 1086.22,1292.71 1089.52,1292.17 1092.82,1291.64 1096.12,1291.1 1099.41,1290.56 1102.71,1290.03 1106.01,1289.49 1109.31,1288.95 1112.61,1288.42 1115.91,1287.88 1119.2,1287.34 1122.5,1286.81 1125.8,1286.27 1129.1,1285.73 1132.4,1285.2 1135.7,1284.66 1139,1284.12 1142.29,1283.59 1145.59,1283.05 1148.89,1282.52 1152.19,1281.98 1155.49,1281.45 1158.79,1280.92 1162.09,1280.38 1165.38,1279.85 1168.68,1279.32 1171.98,1278.79 1175.28,1278.25 1178.58,1277.72 1181.88,1277.19 1185.18,1276.67 1188.47,1276.14 1191.77,1275.61 1195.07,1275.08 1198.37,1274.56 1201.67,1274.03 1204.97,1273.5 1208.27,1272.98 1211.56,1272.46 1214.86,1271.93 1218.16,1271.41 1221.46,1270.89 1224.76,1270.37 1228.06,1269.85 1231.35,1269.33 1234.65,1268.81 1237.95,1268.29 1241.25,1267.78 1244.55,1267.26 1247.85,1266.74 1251.15,1266.23 1254.44,1265.71 1257.74,1265.2 1261.04,1264.69 1264.34,1264.17 1267.64,1263.66 1270.94,1263.15 1274.24,1262.64 1277.53,1262.13 1280.83,1261.62 1284.13,1261.11 1287.43,1260.6 1290.73,1260.09 1294.03,1259.58 1297.33,1259.08 1300.62,1258.57 1303.92,1258.06 1307.22,1257.56 1310.52,1257.05 1313.82,1256.54 1317.12,1256.04 1320.42,1255.53 1323.71,1255.03 1327.01,1254.52 1330.31,1254.01 1333.61,1253.51 1336.91,1253 1340.21,1252.5 1343.5,1251.99 1346.8,1251.48 1350.1,1250.97 1353.4,1250.46 1356.7,1249.95 1360,1249.44 1363.3,1248.93 1366.59,1248.42 1369.89,1247.91 1373.19,1247.39 1376.49,1246.87 1379.79,1246.35 1383.09,1245.83 1386.39,1245.3 1389.68,1244.78 1392.98,1244.24 1396.28,1243.71 1399.58,1243.17 1402.88,1242.63 1406.18,1242.08 1409.48,1241.53 1412.77,1240.96 1416.07,1240.4 1419.37,1239.82 1422.67,1239.24 1425.97,1238.64 1429.27,1238.04 1432.57,1237.42 1435.86,1236.78 1439.16,1236.13 1442.46,1235.46 1445.76,1234.77 1449.06,1234.05 1452.36,1233.3 1455.65,1232.51 1458.95,1231.69 1462.25,1230.81 1465.55,1229.87 1468.85,1228.87 1472.15,1227.77 1475.45,1226.57 1478.74,1225.24 1482.04,1223.74 1485.34,1222.04 1488.64,1220.06 1491.94,1217.73 1495.24,1214.93 1498.54,1211.5 1501.83,1207.18 1505.13,1201.64 1508.43,1194.31 1511.73,1184.37 1515.03,1170.56 1518.33,1151.01 1521.63,1123.4 1524.92,1087.06 1528.22,1052.88 1531.52,1052.5 1534.82,1085.79 1538.12,1121.1 1541.42,1147.6 1544.72,1166.01 1548.01,1178.64 1551.31,1187.38 1554.61,1193.5 1557.91,1197.82 1561.21,1200.9 1564.51,1203.09 1567.8,1204.63 1571.1,1205.69 1574.4,1206.38 1577.7,1206.78 1581,1206.95 1584.3,1206.93 1587.6,1206.74 1590.89,1206.43 1594.19,1205.99 1597.49,1205.43 1600.79,1204.78 1604.09,1204.03 1607.39,1203.17 1610.69,1202.23 1613.98,1201.18 1617.28,1200.03 1620.58,1198.77 1623.88,1197.39 1627.18,1195.88 1630.48,1194.23 1633.78,1192.43 1637.07,1190.45 1640.37,1188.27 1643.67,1185.88 1646.97,1183.23 1650.27,1180.29 1653.57,1177.03 1656.87,1173.38 1660.16,1169.28 1663.46,1164.67 1666.76,1159.45 1670.06,1153.52 1673.36,1146.73 1676.66,1138.94 1679.95,1129.93 1683.25,1119.46 1686.55,1107.21 1689.85,1092.79 1693.15,1075.65 1696.45,1055.13 1699.75,1030.29 1703.04,999.922 1706.34,962.677 1709.64,918.347 1712.94,874.745 1716.24,861.347 1719.54,893.085 1722.84,938.372 1726.13,978.775 1729.43,1011.84 1732.73,1038.66 1736.03,1060.57 1739.33,1078.64 1742.63,1093.67 1745.93,1106.27 1749.22,1116.89 1752.52,1125.89 1755.82,1133.57 1759.12,1140.13 1762.42,1145.76 1765.72,1150.61 1769.02,1154.79 1772.31,1158.42 1775.61,1161.56 1778.91,1164.28 1782.21,1166.65 1785.51,1168.7 1788.81,1170.48 1792.1,1172.03 1795.4,1173.36 1798.7,1174.5 1802,1175.47 1805.3,1176.3 1808.6,1176.98 1811.9,1177.54 1815.19,1177.98 1818.49,1178.31 1821.79,1178.53 1825.09,1178.66 1828.39,1178.68 1831.69,1178.61 1834.99,1178.44 1838.28,1178.17 1841.58,1177.8 1844.88,1177.31 1848.18,1176.7 1851.48,1175.96 1854.78,1175.07 1858.08,1174.01 1861.37,1172.76 1864.67,1171.27 1867.97,1169.52 1871.27,1167.44 1874.57,1164.97 1877.87,1162.01 1881.17,1158.44 1884.46,1154.11 1887.76,1148.82 1891.06,1142.27 1894.36,1134.08 1897.66,1123.74 1900.96,1110.54 1904.25,1093.48 1907.55,1071.23 1910.85,1042.09 1914.15,1004.43 1917.45,960.007 1920.75,927.055 1924.05,939.32 1927.34,981.508 1930.64,1022.72 1933.94,1055.44 1937.24,1080.43 1940.54,1099.47 1943.84,1114.09 1947.14,1125.43 1950.43,1134.32 1953.73,1141.36 1957.03,1146.99 1960.33,1151.53 1963.63,1155.23 1966.93,1158.27 1970.23,1160.78 1973.52,1162.86 1976.82,1164.6 1980.12,1166.06 1983.42,1167.29 1986.72,1168.33 1990.02,1169.21 1993.32,1169.95 1996.61,1170.58 1999.91,1171.11 2003.21,1171.55 2006.51,1171.93 2009.81,1172.24 2013.11,1172.5 2016.4,1172.71 2019.7,1172.87 2023,1173 2026.3,1173.1 2029.6,1173.17 2032.9,1173.22 2036.2,1173.24 2039.49,1173.24 2042.79,1173.22 2046.09,1173.18 2049.39,1173.13 2052.69,1173.07 2055.99,1172.99 2059.29,1172.91 2062.58,1172.81 2065.88,1172.7 2069.18,1172.59 2072.48,1172.46 2075.78,1172.33 2079.08,1172.2 2082.38,1172.05 2085.67,1171.91 2088.97,1171.75 2092.27,1171.59 2095.57,1171.43 2098.87,1171.26 2102.17,1171.09 2105.47,1170.92 2108.76,1170.74 2112.06,1170.56 2115.36,1170.38 2118.66,1170.19 2121.96,1170 2125.26,1169.81 2128.55,1169.62 2131.85,1169.42 2135.15,1169.23 2138.45,1169.03 2141.75,1168.83 2145.05,1168.63 2148.35,1168.43 2151.64,1168.22 2154.94,1168.02 2158.24,1167.81 2161.54,1167.6 2164.84,1167.39 2168.14,1167.18 2171.44,1166.97 2174.73,1166.76 2178.03,1166.55 2181.33,1166.34 2184.63,1166.13 2187.93,1165.91 2191.23,1165.7 2194.53,1165.48 2197.82,1165.27 2201.12,1165.05 2204.42,1164.84 2207.72,1164.62 2211.02,1164.41 2214.32,1164.19 2217.62,1163.97 2220.91,1163.75 2224.21,1163.54 2227.51,1163.32 2230.81,1163.1 2234.11,1162.88 2237.41,1162.66 2240.7,1162.44 2244,1162.23 2247.3,1162.01 2250.6,1161.79 2253.9,1161.57 2257.2,1161.35 2260.5,1161.13 2263.79,1160.91 2267.09,1160.69 2270.39,1160.47 2273.69,1160.25 2276.99,1160.03 2280.29,1159.81 2283.59,1159.59 2286.88,1159.37 2290.18,1159.15 2293.48,1158.94 "/>
<path clip-path="url(#clip620)" d="M1865.27 322.316 L2282.94 322.316 L2282.94 166.796 L1865.27 166.796  Z" fill="#ffffff" fill-rule="evenodd" fill-opacity="1"/>
<polyline clip-path="url(#clip620)" style="stroke:#000000; stroke-linecap:round; stroke-linejoin:round; stroke-width:4; stroke-opacity:1; fill:none" points="1865.27,322.316 2282.94,322.316 2282.94,166.796 1865.27,166.796 1865.27,322.316 "/>
<polyline clip-path="url(#clip620)" style="stroke:#009af9; stroke-linecap:round; stroke-linejoin:round; stroke-width:4; stroke-opacity:1; fill:none" points="1888.54,218.636 2028.16,218.636 "/>
<path clip-path="url(#clip620)" d="M2073.68 202.49 L2073.68 207.05 Q2071.02 205.777 2068.66 205.152 Q2066.29 204.527 2064.1 204.527 Q2060.28 204.527 2058.19 206.008 Q2056.13 207.49 2056.13 210.221 Q2056.13 212.513 2057.5 213.694 Q2058.89 214.851 2062.73 215.569 L2065.55 216.147 Q2070.78 217.143 2073.26 219.666 Q2075.76 222.166 2075.76 226.379 Q2075.76 231.402 2072.38 233.994 Q2069.03 236.587 2062.52 236.587 Q2060.07 236.587 2057.29 236.031 Q2054.54 235.476 2051.57 234.388 L2051.57 229.573 Q2054.42 231.17 2057.15 231.981 Q2059.88 232.791 2062.52 232.791 Q2066.53 232.791 2068.7 231.217 Q2070.88 229.643 2070.88 226.726 Q2070.88 224.18 2069.3 222.744 Q2067.75 221.309 2064.19 220.592 L2061.34 220.036 Q2056.11 218.995 2053.77 216.772 Q2051.43 214.55 2051.43 210.592 Q2051.43 206.008 2054.65 203.37 Q2057.89 200.731 2063.56 200.731 Q2065.99 200.731 2068.52 201.171 Q2071.04 201.61 2073.68 202.49 Z" fill="#000000" fill-rule="nonzero" fill-opacity="1" /><path clip-path="url(#clip620)" d="M2087.08 202.629 L2087.08 209.99 L2095.85 209.99 L2095.85 213.3 L2087.08 213.3 L2087.08 227.374 Q2087.08 230.545 2087.94 231.448 Q2088.82 232.351 2091.48 232.351 L2095.85 232.351 L2095.85 235.916 L2091.48 235.916 Q2086.55 235.916 2084.67 234.087 Q2082.8 232.235 2082.8 227.374 L2082.8 213.3 L2079.67 213.3 L2079.67 209.99 L2082.8 209.99 L2082.8 202.629 L2087.08 202.629 Z" fill="#000000" fill-rule="nonzero" fill-opacity="1" /><path clip-path="url(#clip620)" d="M2113.24 222.883 Q2108.08 222.883 2106.09 224.064 Q2104.09 225.244 2104.09 228.092 Q2104.09 230.36 2105.58 231.703 Q2107.08 233.022 2109.65 233.022 Q2113.19 233.022 2115.32 230.522 Q2117.47 227.999 2117.47 223.832 L2117.47 222.883 L2113.24 222.883 M2121.73 221.124 L2121.73 235.916 L2117.47 235.916 L2117.47 231.981 Q2116.02 234.342 2113.84 235.476 Q2111.66 236.587 2108.52 236.587 Q2104.53 236.587 2102.17 234.365 Q2099.84 232.119 2099.84 228.369 Q2099.84 223.994 2102.75 221.772 Q2105.69 219.55 2111.5 219.55 L2117.47 219.55 L2117.47 219.133 Q2117.47 216.194 2115.53 214.596 Q2113.61 212.976 2110.11 212.976 Q2107.89 212.976 2105.78 213.508 Q2103.68 214.041 2101.73 215.106 L2101.73 211.17 Q2104.07 210.268 2106.27 209.828 Q2108.47 209.365 2110.55 209.365 Q2116.18 209.365 2118.96 212.282 Q2121.73 215.198 2121.73 221.124 Z" fill="#000000" fill-rule="nonzero" fill-opacity="1" /><path clip-path="url(#clip620)" d="M2152.06 220.268 L2152.06 235.916 L2147.8 235.916 L2147.8 220.407 Q2147.8 216.726 2146.36 214.897 Q2144.93 213.069 2142.06 213.069 Q2138.61 213.069 2136.62 215.268 Q2134.63 217.467 2134.63 221.263 L2134.63 235.916 L2130.34 235.916 L2130.34 209.99 L2134.63 209.99 L2134.63 214.018 Q2136.16 211.68 2138.22 210.522 Q2140.3 209.365 2143.01 209.365 Q2147.47 209.365 2149.77 212.143 Q2152.06 214.897 2152.06 220.268 Z" fill="#000000" fill-rule="nonzero" fill-opacity="1" /><path clip-path="url(#clip620)" d="M2177.61 213.925 L2177.61 199.897 L2181.87 199.897 L2181.87 235.916 L2177.61 235.916 L2177.61 232.027 Q2176.27 234.342 2174.21 235.476 Q2172.17 236.587 2169.3 236.587 Q2164.6 236.587 2161.64 232.837 Q2158.7 229.087 2158.7 222.976 Q2158.7 216.865 2161.64 213.115 Q2164.6 209.365 2169.3 209.365 Q2172.17 209.365 2174.21 210.499 Q2176.27 211.61 2177.61 213.925 M2163.1 222.976 Q2163.1 227.675 2165.02 230.36 Q2166.97 233.022 2170.34 233.022 Q2173.72 233.022 2175.67 230.36 Q2177.61 227.675 2177.61 222.976 Q2177.61 218.277 2175.67 215.615 Q2173.72 212.93 2170.34 212.93 Q2166.97 212.93 2165.02 215.615 Q2163.1 218.277 2163.1 222.976 Z" fill="#000000" fill-rule="nonzero" fill-opacity="1" /><path clip-path="url(#clip620)" d="M2202.43 222.883 Q2197.27 222.883 2195.28 224.064 Q2193.28 225.244 2193.28 228.092 Q2193.28 230.36 2194.77 231.703 Q2196.27 233.022 2198.84 233.022 Q2202.38 233.022 2204.51 230.522 Q2206.66 227.999 2206.66 223.832 L2206.66 222.883 L2202.43 222.883 M2210.92 221.124 L2210.92 235.916 L2206.66 235.916 L2206.66 231.981 Q2205.21 234.342 2203.03 235.476 Q2200.85 236.587 2197.71 236.587 Q2193.72 236.587 2191.36 234.365 Q2189.03 232.119 2189.03 228.369 Q2189.03 223.994 2191.94 221.772 Q2194.88 219.55 2200.69 219.55 L2206.66 219.55 L2206.66 219.133 Q2206.66 216.194 2204.72 214.596 Q2202.8 212.976 2199.3 212.976 Q2197.08 212.976 2194.97 213.508 Q2192.87 214.041 2190.92 215.106 L2190.92 211.17 Q2193.26 210.268 2195.46 209.828 Q2197.66 209.365 2199.74 209.365 Q2205.37 209.365 2208.15 212.282 Q2210.92 215.198 2210.92 221.124 Z" fill="#000000" fill-rule="nonzero" fill-opacity="1" /><path clip-path="url(#clip620)" d="M2234.72 213.971 Q2234 213.555 2233.15 213.37 Q2232.31 213.161 2231.29 213.161 Q2227.68 213.161 2225.74 215.522 Q2223.82 217.86 2223.82 222.258 L2223.82 235.916 L2219.53 235.916 L2219.53 209.99 L2223.82 209.99 L2223.82 214.018 Q2225.16 211.657 2227.31 210.522 Q2229.46 209.365 2232.54 209.365 Q2232.98 209.365 2233.52 209.434 Q2234.05 209.481 2234.7 209.596 L2234.72 213.971 Z" fill="#000000" fill-rule="nonzero" fill-opacity="1" /><path clip-path="url(#clip620)" d="M2255.41 213.925 L2255.41 199.897 L2259.67 199.897 L2259.67 235.916 L2255.41 235.916 L2255.41 232.027 Q2254.07 234.342 2252.01 235.476 Q2249.97 236.587 2247.1 236.587 Q2242.4 236.587 2239.44 232.837 Q2236.5 229.087 2236.5 222.976 Q2236.5 216.865 2239.44 213.115 Q2242.4 209.365 2247.1 209.365 Q2249.97 209.365 2252.01 210.499 Q2254.07 211.61 2255.41 213.925 M2240.9 222.976 Q2240.9 227.675 2242.82 230.36 Q2244.77 233.022 2248.15 233.022 Q2251.52 233.022 2253.47 230.36 Q2255.41 227.675 2255.41 222.976 Q2255.41 218.277 2253.47 215.615 Q2251.52 212.93 2248.15 212.93 Q2244.77 212.93 2242.82 215.615 Q2240.9 218.277 2240.9 222.976 Z" fill="#000000" fill-rule="nonzero" fill-opacity="1" /><polyline clip-path="url(#clip620)" style="stroke:#e26f46; stroke-linecap:round; stroke-linejoin:round; stroke-width:4; stroke-opacity:1; fill:none" points="1888.54,270.476 2028.16,270.476 "/>
<path clip-path="url(#clip620)" d="M2056.11 257.038 L2056.11 283.913 L2061.76 283.913 Q2068.91 283.913 2072.22 280.672 Q2075.55 277.432 2075.55 270.441 Q2075.55 263.497 2072.22 260.279 Q2068.91 257.038 2061.76 257.038 L2056.11 257.038 M2051.43 253.196 L2061.04 253.196 Q2071.09 253.196 2075.78 257.386 Q2080.48 261.552 2080.48 270.441 Q2080.48 279.376 2075.76 283.566 Q2071.04 287.756 2061.04 287.756 L2051.43 287.756 L2051.43 253.196 Z" fill="#000000" fill-rule="nonzero" fill-opacity="1" /><path clip-path="url(#clip620)" d="M2102.78 265.811 Q2102.06 265.395 2101.2 265.21 Q2100.37 265.001 2099.35 265.001 Q2095.74 265.001 2093.79 267.362 Q2091.87 269.7 2091.87 274.098 L2091.87 287.756 L2087.59 287.756 L2087.59 261.83 L2091.87 261.83 L2091.87 265.858 Q2093.22 263.497 2095.37 262.362 Q2097.52 261.205 2100.6 261.205 Q2101.04 261.205 2101.57 261.274 Q2102.1 261.321 2102.75 261.436 L2102.78 265.811 Z" fill="#000000" fill-rule="nonzero" fill-opacity="1" /><path clip-path="url(#clip620)" d="M2118.03 290.163 Q2116.22 294.793 2114.51 296.205 Q2112.8 297.617 2109.93 297.617 L2106.53 297.617 L2106.53 294.052 L2109.03 294.052 Q2110.78 294.052 2111.76 293.219 Q2112.73 292.385 2113.91 289.283 L2114.67 287.339 L2104.19 261.83 L2108.7 261.83 L2116.8 282.108 L2124.91 261.83 L2129.42 261.83 L2118.03 290.163 Z" fill="#000000" fill-rule="nonzero" fill-opacity="1" /><path clip-path="url(#clip620)" d="M2162.15 274.723 Q2156.99 274.723 2155 275.904 Q2153.01 277.084 2153.01 279.932 Q2153.01 282.2 2154.49 283.543 Q2155.99 284.862 2158.56 284.862 Q2162.1 284.862 2164.23 282.362 Q2166.39 279.839 2166.39 275.672 L2166.39 274.723 L2162.15 274.723 M2170.65 272.964 L2170.65 287.756 L2166.39 287.756 L2166.39 283.821 Q2164.93 286.182 2162.75 287.316 Q2160.58 288.427 2157.43 288.427 Q2153.45 288.427 2151.09 286.205 Q2148.75 283.959 2148.75 280.209 Q2148.75 275.834 2151.66 273.612 Q2154.6 271.39 2160.41 271.39 L2166.39 271.39 L2166.39 270.973 Q2166.39 268.034 2164.44 266.436 Q2162.52 264.816 2159.03 264.816 Q2156.8 264.816 2154.7 265.348 Q2152.59 265.881 2150.65 266.946 L2150.65 263.01 Q2152.98 262.108 2155.18 261.668 Q2157.38 261.205 2159.47 261.205 Q2165.09 261.205 2167.87 264.122 Q2170.65 267.038 2170.65 272.964 Z" fill="#000000" fill-rule="nonzero" fill-opacity="1" /><path clip-path="url(#clip620)" d="M2179.42 261.83 L2183.68 261.83 L2183.68 287.756 L2179.42 287.756 L2179.42 261.83 M2179.42 251.737 L2183.68 251.737 L2183.68 257.131 L2179.42 257.131 L2179.42 251.737 Z" fill="#000000" fill-rule="nonzero" fill-opacity="1" /><path clip-path="url(#clip620)" d="M2207.61 265.811 Q2206.9 265.395 2206.04 265.21 Q2205.21 265.001 2204.19 265.001 Q2200.58 265.001 2198.63 267.362 Q2196.71 269.7 2196.71 274.098 L2196.71 287.756 L2192.43 287.756 L2192.43 261.83 L2196.71 261.83 L2196.71 265.858 Q2198.05 263.497 2200.21 262.362 Q2202.36 261.205 2205.44 261.205 Q2205.88 261.205 2206.41 261.274 Q2206.94 261.321 2207.59 261.436 L2207.61 265.811 Z" fill="#000000" fill-rule="nonzero" fill-opacity="1" /></svg>
